<?xml version="1.0" encoding="UTF-8" standalone="no"?>
<svg
   xmlns:dc="http://purl.org/dc/elements/1.1/"
   xmlns:cc="http://creativecommons.org/ns#"
   xmlns:rdf="http://www.w3.org/1999/02/22-rdf-syntax-ns#"
   xmlns:svg="http://www.w3.org/2000/svg"
   xmlns="http://www.w3.org/2000/svg"
   xmlns:sodipodi="http://sodipodi.sourceforge.net/DTD/sodipodi-0.dtd"
   xmlns:inkscape="http://www.inkscape.org/namespaces/inkscape"
   inkscape:export-ydpi="299"
   inkscape:export-xdpi="299"
   inkscape:export-filename="/home/enrico/PTX/Vorträge/media/emmc-bootloader-update.png"
   sodipodi:docname="emmc-bootloader-update.svg"
   inkscape:version="1.0rc1 (09960d6f05, 2020-04-09)"
   version="1.1"
   id="svg7741"
   viewBox="0 0 665.11831 355.91757"
   height="100.44785mm"
   width="187.71117mm">
  <defs
     id="defs7743">
    <marker
       inkscape:isstock="true"
       style="overflow:visible"
       id="marker9504"
       refX="0"
       refY="0"
       orient="auto"
       inkscape:stockid="Arrow2Send">
      <path
         inkscape:connector-curvature="0"
         transform="matrix(-0.3,0,0,-0.3,0.69,0)"
         d="M 8.7185878,4.0337352 -2.2072895,0.01601326 8.7185884,-4.0017078 c -1.7454984,2.3720609 -1.7354408,5.6174519 -6e-7,8.035443 z"
         style="fill:#b80078;fill-opacity:1;fill-rule:evenodd;stroke:#b80078;stroke-width:0.625;stroke-linejoin:round;stroke-opacity:1"
         id="path9506" />
    </marker>
    <marker
       inkscape:isstock="true"
       style="overflow:visible"
       id="Arrow2Send"
       refX="0"
       refY="0"
       orient="auto"
       inkscape:stockid="Arrow2Send">
      <path
         inkscape:connector-curvature="0"
         transform="matrix(-0.3,0,0,-0.3,0.69,0)"
         d="M 8.7185878,4.0337352 -2.2072895,0.01601326 8.7185884,-4.0017078 c -1.7454984,2.3720609 -1.7354408,5.6174519 -6e-7,8.035443 z"
         style="fill:#4ca0cd;fill-opacity:1;fill-rule:evenodd;stroke:#4ca0cd;stroke-width:0.625;stroke-linejoin:round;stroke-opacity:1"
         id="path8460" />
    </marker>
    <marker
       inkscape:isstock="true"
       style="overflow:visible"
       id="Arrow1Send"
       refX="0"
       refY="0"
       orient="auto"
       inkscape:stockid="Arrow1Send">
      <path
         inkscape:connector-curvature="0"
         transform="matrix(-0.2,0,0,-0.2,-1.2,0)"
         style="fill:#000000;fill-opacity:1;fill-rule:evenodd;stroke:#000000;stroke-width:1.00000003pt;stroke-opacity:1"
         d="M 0,0 5,-5 -12.5,0 5,5 Z"
         id="path8442" />
    </marker>
    <marker
       inkscape:isstock="true"
       style="overflow:visible"
       id="Arrow2Send-3"
       refX="0"
       refY="0"
       orient="auto"
       inkscape:stockid="Arrow2Send">
      <path
         transform="matrix(-0.3,0,0,-0.3,0.69,0)"
         d="M 8.7185878,4.0337352 -2.2072895,0.01601326 8.7185884,-4.0017078 c -1.7454984,2.3720609 -1.7354408,5.6174519 -6e-7,8.035443 z"
         style="fill:#78b800;fill-opacity:1;fill-rule:evenodd;stroke:#78b800;stroke-width:0.625;stroke-linejoin:round;stroke-opacity:1"
         id="path8460-7"
         inkscape:connector-curvature="0" />
    </marker>
    <marker
       inkscape:isstock="true"
       style="overflow:visible"
       id="marker9504-7"
       refX="0"
       refY="0"
       orient="auto"
       inkscape:stockid="Arrow2Send">
      <path
         transform="matrix(-0.3,0,0,-0.3,0.69,0)"
         d="M 8.7185878,4.0337352 -2.2072895,0.01601326 8.7185884,-4.0017078 c -1.7454984,2.3720609 -1.7354408,5.6174519 -6e-7,8.035443 z"
         style="fill:#b3b3b3;fill-opacity:1;fill-rule:evenodd;stroke:#b3b3b3;stroke-width:0.625;stroke-linejoin:round;stroke-opacity:1"
         id="path9506-3"
         inkscape:connector-curvature="0" />
    </marker>
    <marker
       inkscape:isstock="true"
       style="overflow:visible"
       id="marker9504-5"
       refX="0"
       refY="0"
       orient="auto"
       inkscape:stockid="Arrow2Send">
      <path
         inkscape:connector-curvature="0"
         transform="matrix(-0.3,0,0,-0.3,0.69,0)"
         d="M 8.7185878,4.0337352 -2.2072895,0.01601326 8.7185884,-4.0017078 c -1.7454984,2.3720609 -1.7354408,5.6174519 -6e-7,8.035443 z"
         style="fill:#b80078;fill-opacity:1;fill-rule:evenodd;stroke:#b80078;stroke-width:0.625;stroke-linejoin:round;stroke-opacity:1"
         id="path9506-2" />
    </marker>
    <marker
       inkscape:isstock="true"
       style="overflow:visible"
       id="Arrow2Send-3-9"
       refX="0"
       refY="0"
       orient="auto"
       inkscape:stockid="Arrow2Send">
      <path
         transform="matrix(-0.3,0,0,-0.3,0.69,0)"
         d="M 8.7185878,4.0337352 -2.2072895,0.01601326 8.7185884,-4.0017078 c -1.7454984,2.3720609 -1.7354408,5.6174519 -6e-7,8.035443 z"
         style="fill:#78b800;fill-opacity:1;fill-rule:evenodd;stroke:#78b800;stroke-width:0.625;stroke-linejoin:round;stroke-opacity:1"
         id="path8460-7-9"
         inkscape:connector-curvature="0" />
    </marker>
  </defs>
  <sodipodi:namedview
     inkscape:document-rotation="0"
     fit-margin-bottom="2"
     fit-margin-right="2"
     fit-margin-left="2"
     fit-margin-top="2"
     inkscape:window-maximized="0"
     inkscape:window-y="37"
     inkscape:window-x="3627"
     inkscape:window-height="1401"
     inkscape:window-width="849"
     showgrid="false"
     inkscape:current-layer="layer1"
     inkscape:document-units="px"
     inkscape:cy="333.16226"
     inkscape:cx="-86.535853"
     inkscape:zoom="0.98994949"
     inkscape:pageshadow="2"
     inkscape:pageopacity="1"
     borderopacity="1.0"
     bordercolor="#666666"
     pagecolor="#ffffff"
     id="base" />
  <metadata
     id="metadata7746">
    <rdf:RDF>
      <cc:Work
         rdf:about="">
        <dc:format>image/svg+xml</dc:format>
        <dc:type
           rdf:resource="http://purl.org/dc/dcmitype/StillImage" />
        <dc:title />
      </cc:Work>
    </rdf:RDF>
  </metadata>
  <g
     transform="translate(-40.463447,-148.89777)"
     id="layer1"
     inkscape:groupmode="layer"
     inkscape:label="Ebene 1">
    <g
       id="text5412-0"
       style="font-style:normal;font-weight:normal;line-height:0%;font-family:sans-serif;letter-spacing:0px;word-spacing:0px;fill:#999999;fill-opacity:1;stroke:none;stroke-width:1px;stroke-linecap:butt;stroke-linejoin:miter;stroke-opacity:1"
       aria-label="">
      <path
         inkscape:connector-curvature="0"
         id="path900"
         style="font-size:323.73294067px;line-height:1.25"
         d="m 219.361,387.22219 v 23.12379 h -20.23331 q -2.89048,0 -2.89048,-2.89048 v -2.89047 h -8.67141 q -2.89048,0 -2.89048,-2.89047 v -5.78095 q 0,-2.89047 2.89048,-2.89047 h 8.67141 v -2.89047 q 0,-2.89048 2.89048,-2.89048 z m 0,-46.24756 v 23.12378 h -20.23331 q -2.89048,0 -2.89048,-2.89047 v -2.89047 h -8.67141 q -2.89048,0 -2.89048,-2.89048 v -5.78094 q 0,-2.89047 2.89048,-2.89047 h 8.67141 v -2.89048 q 0,-2.89047 2.89048,-2.89047 z m 0,-46.24756 v 23.12378 h -20.23331 q -2.89048,0 -2.89048,-2.89047 v -2.89048 h -8.67141 q -2.89048,0 -2.89048,-2.89047 v -5.78094 q 0,-2.89048 2.89048,-2.89048 h 8.67141 v -2.89047 q 0,-2.89047 2.89048,-2.89047 z m 0,-46.24756 v 23.12378 h -20.23331 q -2.89048,0 -2.89048,-2.89048 v -2.89047 h -8.67141 q -2.89048,0 -2.89048,-2.89047 v -5.78095 q 0,-2.89047 2.89048,-2.89047 h 8.67141 v -2.89047 q 0,-2.89047 2.89048,-2.89047 z m 0,-46.24757 v 23.12378 h -20.23331 q -2.89048,0 -2.89048,-2.89047 v -2.89047 h -8.67141 q -2.89048,0 -2.89048,-2.89047 v -5.78095 q 0,-2.89047 2.89048,-2.89047 h 8.67141 v -2.89048 q 0,-2.89047 2.89048,-2.89047 z M 415.91314,173.32722 V 439.2507 q 0,7.22618 -5.05833,12.28451 -5.05833,5.05833 -12.28451,5.05833 H 248.26572 q -7.22618,0 -12.28451,-5.05833 -5.05832,-5.05833 -5.05832,-12.28451 V 173.32722 q 0,-7.22619 5.05832,-12.28451 5.05833,-5.05833 12.28451,-5.05833 H 398.5703 q 7.22618,0 12.28451,5.05833 5.05833,5.05832 5.05833,12.28451 z m 46.24756,222.56639 v 5.78095 q 0,2.89047 -2.89047,2.89047 h -8.67142 v 2.89047 q 0,2.89048 -2.89047,2.89048 h -20.23331 v -23.12379 h 20.23331 q 2.89047,0 2.89047,2.89048 v 2.89047 h 8.67142 q 2.89047,0 2.89047,2.89047 z m 0,-46.24756 v 5.78094 q 0,2.89048 -2.89047,2.89048 h -8.67142 v 2.89047 q 0,2.89047 -2.89047,2.89047 h -20.23331 v -23.12378 h 20.23331 q 2.89047,0 2.89047,2.89047 v 2.89048 h 8.67142 q 2.89047,0 2.89047,2.89047 z m 0,-46.24756 v 5.78094 q 0,2.89047 -2.89047,2.89047 h -8.67142 v 2.89048 q 0,2.89047 -2.89047,2.89047 h -20.23331 v -23.12378 h 20.23331 q 2.89047,0 2.89047,2.89047 v 2.89047 h 8.67142 q 2.89047,0 2.89047,2.89048 z m 0,-46.24757 v 5.78095 q 0,2.89047 -2.89047,2.89047 h -8.67142 v 2.89047 q 0,2.89048 -2.89047,2.89048 h -20.23331 v -23.12378 h 20.23331 q 2.89047,0 2.89047,2.89047 v 2.89047 h 8.67142 q 2.89047,0 2.89047,2.89047 z m 0,-46.24756 v 5.78095 q 0,2.89047 -2.89047,2.89047 h -8.67142 v 2.89047 q 0,2.89047 -2.89047,2.89047 h -20.23331 v -23.12378 h 20.23331 q 2.89047,0 2.89047,2.89047 v 2.89048 h 8.67142 q 2.89047,0 2.89047,2.89047 z" />
    </g>
    <g
       transform="translate(79.971235,5.0507627)"
       id="g8383">
      <g
         id="g8363"
         transform="translate(7.576149)">
        <path
           d="M 160.50439,173.41963 H 311.23686 V 226.1673 H 160.50439 Z"
           style="fill:#4ca0cd;fill-opacity:1;stroke:#ffffff;stroke-width:1.78;stroke-miterlimit:4;stroke-dasharray:none;stroke-dashoffset:0;stroke-opacity:1"
           id="rect8324" />
        <g
           style="font-style:normal;font-weight:normal;line-height:0%;font-family:sans-serif;letter-spacing:0px;word-spacing:0px;fill:#ffffff;fill-opacity:1;stroke:none;stroke-width:1px;stroke-linecap:butt;stroke-linejoin:miter;stroke-opacity:1"
           id="text8326"
           aria-label="boot0">
          <path
             id="path54"
             style="font-style:normal;font-variant:normal;font-weight:normal;font-stretch:normal;font-size:40px;line-height:1.25;font-family:'Roboto Slab';-inkscape-font-specification:'Roboto Slab';fill:#ffffff"
             d="m 205.26517,205.05714 v -0.41015 c 0,-6.79688 -3.06641,-11.34766 -8.28125,-11.34766 -2.63672,0 -4.58985,1.01563 -5.91797,2.89063 v -11.83594 h -7.03125 v 2.48047 l 3.18359,0.54687 v 27.44141 h 3.32031 l 0.35157,-2.71484 c 1.34765,2.05078 3.3789,3.125 6.13281,3.125 5.13672,0 8.24219,-4.08204 8.24219,-10.17579 z m -3.86719,-0.41015 v 0.41015 c 0,4.23829 -1.73828,7.05079 -5.35156,7.05079 -2.36328,0 -4.02344,-1.23047 -4.98047,-3.1836 v -9.33594 c 0.95703,-1.93359 2.57812,-3.16406 4.9414,-3.16406 3.65235,0 5.39063,3.35938 5.39063,8.22266 z" />
          <path
             id="path56"
             style="font-style:normal;font-variant:normal;font-weight:normal;font-stretch:normal;font-size:40px;line-height:1.25;font-family:'Roboto Slab';-inkscape-font-specification:'Roboto Slab';fill:#ffffff"
             d="m 208.93704,204.06105 v 0.42969 c 0,6.26953 3.61328,10.74219 9.47266,10.74219 5.80078,0 9.43359,-4.4336 9.43359,-10.74219 v -0.42969 c 0,-6.26953 -3.63281,-10.76172 -9.47265,-10.76172 -5.80079,0 -9.4336,4.51172 -9.4336,10.76172 z m 3.84766,0.42969 v -0.42969 c 0,-4.43359 1.89453,-7.73437 5.58594,-7.73437 3.6914,0 5.625,3.30078 5.625,7.73437 v 0.42969 c 0,4.47265 -1.9336,7.73437 -5.58594,7.73437 -3.73047,0 -5.625,-3.26172 -5.625,-7.73437 z" />
          <path
             id="path58"
             style="font-style:normal;font-variant:normal;font-weight:normal;font-stretch:normal;font-size:40px;line-height:1.25;font-family:'Roboto Slab';-inkscape-font-specification:'Roboto Slab';fill:#ffffff"
             d="m 231.31985,204.06105 v 0.42969 c 0,6.26953 3.61329,10.74219 9.47266,10.74219 5.80078,0 9.43359,-4.4336 9.43359,-10.74219 v -0.42969 c 0,-6.26953 -3.63281,-10.76172 -9.47265,-10.76172 -5.80078,0 -9.4336,4.51172 -9.4336,10.76172 z m 3.84766,0.42969 v -0.42969 c 0,-4.43359 1.89453,-7.73437 5.58594,-7.73437 3.6914,0 5.625,3.30078 5.625,7.73437 v 0.42969 c 0,4.47265 -1.9336,7.73437 -5.58594,7.73437 -3.73047,0 -5.625,-3.26172 -5.625,-7.73437 z" />
          <path
             id="path60"
             style="font-style:normal;font-variant:normal;font-weight:normal;font-stretch:normal;font-size:40px;line-height:1.25;font-family:'Roboto Slab';-inkscape-font-specification:'Roboto Slab';fill:#ffffff"
             d="m 259.32767,188.5923 h -3.84766 v 5.09766 h -3.33984 v 2.85156 h 3.33984 v 12.83203 c 0,4.04297 1.97266,5.78125 5.09766,5.78125 1.40625,0 3.22265,-0.29297 4.33593,-0.64453 l -0.52734,-2.51953 c -0.625,0.13672 -1.93359,0.35156 -2.83203,0.35156 -1.36719,0 -2.22656,-0.9375 -2.22656,-2.96875 v -12.83203 h 4.58984 v -2.85156 h -4.58984 z" />
          <path
             id="path62"
             style="font-style:normal;font-variant:normal;font-weight:normal;font-stretch:normal;font-size:40px;line-height:1.25;font-family:'Roboto Slab';-inkscape-font-specification:'Roboto Slab';fill:#ffffff"
             d="m 286.39798,203.98293 v -6.73829 c 0,-7.24609 -3.47656,-11.26953 -9.08203,-11.26953 -5.56641,0 -9.02344,4.02344 -9.02344,11.26953 v 6.73829 c 0,7.24609 3.49609,11.25 9.0625,11.25 5.60547,0 9.04297,-3.98438 9.04297,-11.25 z m -3.84766,-7.5586 v 8.33985 c 0,4.9414 -1.77734,7.46093 -5.19531,7.46093 -3.35937,0 -5.21484,-2.53906 -5.21484,-7.46093 v -8.33985 c 0,-4.92187 1.8164,-7.42187 5.17578,-7.42187 3.41797,0 5.23437,2.5 5.23437,7.42187 z" />
        </g>
      </g>
      <g
         id="g8368"
         transform="translate(6.0609207)">
        <path
           d="m 162.01962,234.02879 h 150.73247 v 52.74768 H 162.01962 Z"
           style="fill:#0078b8;fill-opacity:1;stroke:#b80078;stroke-width:1.78;stroke-miterlimit:4;stroke-dasharray:none;stroke-dashoffset:0;stroke-opacity:1"
           id="rect8324-1" />
        <g
           style="font-style:normal;font-weight:normal;line-height:0%;font-family:sans-serif;letter-spacing:0px;word-spacing:0px;fill:#ffffff;fill-opacity:1;stroke:none;stroke-width:1px;stroke-linecap:butt;stroke-linejoin:miter;stroke-opacity:1"
           id="text8326-9"
           aria-label="boot1">
          <path
             id="path66"
             style="font-style:normal;font-variant:normal;font-weight:normal;font-stretch:normal;font-size:40px;line-height:1.25;font-family:'Roboto Slab';-inkscape-font-specification:'Roboto Slab';fill:#ffffff"
             d="m 206.7804,265.66626 v -0.41016 c 0,-6.79687 -3.06641,-11.34765 -8.28125,-11.34765 -2.63672,0 -4.58985,1.01562 -5.91797,2.89062 v -11.83594 h -7.03125 v 2.48047 l 3.18359,0.54688 v 27.4414 h 3.32031 l 0.35157,-2.71484 c 1.34765,2.05078 3.3789,3.125 6.13281,3.125 5.13672,0 8.24219,-4.08203 8.24219,-10.17578 z m -3.86719,-0.41016 v 0.41016 c 0,4.23828 -1.73828,7.05078 -5.35156,7.05078 -2.36329,0 -4.02344,-1.23047 -4.98047,-3.18359 v -9.33594 c 0.95703,-1.93359 2.57812,-3.16406 4.9414,-3.16406 3.65235,0 5.39063,3.35937 5.39063,8.22265 z" />
          <path
             id="path68"
             style="font-style:normal;font-variant:normal;font-weight:normal;font-stretch:normal;font-size:40px;line-height:1.25;font-family:'Roboto Slab';-inkscape-font-specification:'Roboto Slab';fill:#ffffff"
             d="m 210.45227,264.67017 v 0.42968 c 0,6.26953 3.61328,10.74219 9.47266,10.74219 5.80078,0 9.43359,-4.43359 9.43359,-10.74219 v -0.42968 c 0,-6.26954 -3.63281,-10.76172 -9.47266,-10.76172 -5.80078,0 -9.43359,4.51172 -9.43359,10.76172 z m 3.84766,0.42968 v -0.42968 c 0,-4.4336 1.89453,-7.73438 5.58593,-7.73438 3.69141,0 5.625,3.30078 5.625,7.73438 v 0.42968 c 0,4.47266 -1.93359,7.73438 -5.58593,7.73438 -3.73047,0 -5.625,-3.26172 -5.625,-7.73438 z" />
          <path
             id="path70"
             style="font-style:normal;font-variant:normal;font-weight:normal;font-stretch:normal;font-size:40px;line-height:1.25;font-family:'Roboto Slab';-inkscape-font-specification:'Roboto Slab';fill:#ffffff"
             d="m 232.83508,264.67017 v 0.42968 c 0,6.26953 3.61328,10.74219 9.47266,10.74219 5.80078,0 9.43359,-4.43359 9.43359,-10.74219 v -0.42968 c 0,-6.26954 -3.63281,-10.76172 -9.47265,-10.76172 -5.80078,0 -9.4336,4.51172 -9.4336,10.76172 z m 3.84766,0.42968 v -0.42968 c 0,-4.4336 1.89453,-7.73438 5.58594,-7.73438 3.6914,0 5.625,3.30078 5.625,7.73438 v 0.42968 c 0,4.47266 -1.9336,7.73438 -5.58594,7.73438 -3.73047,0 -5.625,-3.26172 -5.625,-7.73438 z" />
          <path
             id="path72"
             style="font-style:normal;font-variant:normal;font-weight:normal;font-stretch:normal;font-size:40px;line-height:1.25;font-family:'Roboto Slab';-inkscape-font-specification:'Roboto Slab';fill:#ffffff"
             d="m 260.8429,249.20142 h -3.84766 v 5.09765 h -3.33984 v 2.85156 h 3.33984 v 12.83204 c 0,4.04296 1.97266,5.78125 5.09766,5.78125 1.40625,0 3.22265,-0.29297 4.33593,-0.64454 l -0.52734,-2.51953 c -0.625,0.13672 -1.93359,0.35157 -2.83203,0.35157 -1.36719,0 -2.22656,-0.9375 -2.22656,-2.96875 v -12.83204 h 4.58984 v -2.85156 h -4.58984 z" />
          <path
             id="path74"
             style="font-style:normal;font-variant:normal;font-weight:normal;font-stretch:normal;font-size:40px;line-height:1.25;font-family:'Roboto Slab';-inkscape-font-specification:'Roboto Slab';fill:#ffffff"
             d="m 269.80774,272.97095 v 2.46093 h 12.61719 v -2.46093 l -4.375,-0.54688 v -25.42969 l -8.32032,1.79688 v 2.40234 l 4.47266,-0.0781 v 21.30859 z" />
        </g>
      </g>
      <path
         d="M 168.59116,299.18915 H 318.30237 V 430.71762 H 168.59116 Z"
         style="fill:none;fill-opacity:1;stroke:#ffffff;stroke-width:1.7;stroke-miterlimit:4;stroke-dasharray:none;stroke-dashoffset:0;stroke-opacity:1"
         id="rect8324-2" />
      <g
         style="font-style:normal;font-weight:normal;line-height:0%;font-family:sans-serif;letter-spacing:0px;word-spacing:0px;fill:#ffffff;fill-opacity:1;stroke:none;stroke-width:1px;stroke-linecap:butt;stroke-linejoin:miter;stroke-opacity:1"
         id="text8326-0"
         aria-label="user">
        <path
           id="path78"
           style="font-style:normal;font-variant:normal;font-weight:normal;font-stretch:normal;font-size:40px;line-height:1.25;font-family:'Roboto Slab';-inkscape-font-specification:'Roboto Slab';fill:#ffffff"
           d="m 218.95847,339.98712 0.2539,3.125 h 5.87891 v -2.46094 l -2.42188,-0.54687 v -18.125 h -6.67968 v 2.48047 l 2.83203,0.54687 v 12.20703 c -0.91797,2.03125 -2.67578,3.1836 -5.41016,3.1836 -2.8125,0 -4.10156,-1.40625 -4.10156,-5.91797 v -12.5 h -6.26953 v 2.48047 l 2.42187,0.54687 v 9.4336 c 0,6.23047 2.71485,9.08203 7.30469,9.08203 2.73437,0 4.86328,-1.26953 6.19141,-3.53516 z" />
        <path
           id="path80"
           style="font-style:normal;font-variant:normal;font-weight:normal;font-stretch:normal;font-size:40px;line-height:1.25;font-family:'Roboto Slab';-inkscape-font-specification:'Roboto Slab';fill:#ffffff"
           d="m 243.72409,328.42462 -0.19531,-4.82422 c -1.69922,-1.23047 -3.88672,-2.01172 -7.08985,-2.01172 -4.72656,0 -7.91015,2.61719 -7.91015,6.03516 0,3.28125 2.32422,5.11719 7.4414,6.28906 3.59375,0.82032 4.7461,1.9336 4.7461,3.59375 0,1.77735 -1.25,3.125 -4.375,3.125 -1.58203,0 -2.8711,-0.2539 -4.33594,-0.85937 l -0.72266,-3.02735 h -2.91015 l 0.0391,5.01954 c 2.79297,1.21093 5.09766,1.75781 7.92969,1.75781 5.68359,0 8.22265,-2.71485 8.22265,-6.28906 0,-3.125 -2.03125,-5.19532 -7.91015,-6.58204 -3.55469,-0.83984 -4.25781,-1.66015 -4.25781,-3.14453 0,-1.69922 1.64062,-2.94922 4.04296,-2.94922 1.60157,0 2.85157,0.39063 3.76954,1.05469 l 0.625,2.8125 z" />
        <path
           id="path82"
           style="font-style:normal;font-variant:normal;font-weight:normal;font-stretch:normal;font-size:40px;line-height:1.25;font-family:'Roboto Slab';-inkscape-font-specification:'Roboto Slab';fill:#ffffff"
           d="m 257.37643,343.52228 c 3.4961,0 5.97657,-1.13281 7.48047,-2.59766 l -1.5039,-2.5 c -1.42578,1.3086 -3.37891,2.08985 -5.97657,2.08985 -3.57421,0 -5.625,-2.91016 -5.70312,-6.97266 l 0.0586,-0.0977 h 13.71094 v -2.40234 c 0,-5.72266 -2.96875,-9.45313 -8.65234,-9.45313 -4.90235,0 -9.04297,4.49219 -9.04297,10.50782 v 0.85937 c 0,6.25 3.75,10.56641 9.6289,10.56641 z m -0.58593,-18.90625 c 3.18359,0 4.80468,2.28515 4.80468,5.3125 v 0.50781 h -9.74609 l -0.0391,-0.0977 c 0.41015,-3.28125 2.40234,-5.72265 4.98047,-5.72265 z" />
        <path
           id="path84"
           style="font-style:normal;font-variant:normal;font-weight:normal;font-stretch:normal;font-size:40px;line-height:1.25;font-family:'Roboto Slab';-inkscape-font-specification:'Roboto Slab';fill:#ffffff"
           d="m 268.39206,340.65118 v 2.46094 h 10.21484 v -2.46094 l -3.18359,-0.54687 v -11.97266 c 0.74219,-1.75781 2.12891,-2.92968 4.16016,-2.8125 l 2.67578,0.15625 0.50781,-3.57422 c -0.37109,-0.13671 -1.34766,-0.3125 -2.14844,-0.3125 -2.26562,0 -4.04297,1.28907 -5.23437,3.45704 l -0.0391,-0.3711 -0.33203,-2.69531 h -6.62109 v 2.48047 l 3.18359,0.54687 v 15.09766 z" />
      </g>
    </g>
    <g
       id="g9485">
      <path
         d="m 48.50967,198.69023 h 108.39114 v 69.37805 H 48.50967 Z"
         style="fill:none;fill-opacity:1;stroke:#b80078;stroke-width:1.91922;stroke-miterlimit:4;stroke-dasharray:none;stroke-dashoffset:0;stroke-opacity:1"
         id="rect9479" />
      <g
         style="font-style:normal;font-variant:normal;font-weight:normal;font-stretch:normal;line-height:0%;font-family:'Roboto Slab';-inkscape-font-specification:'Roboto Slab';letter-spacing:0px;word-spacing:0px;fill:#000000;fill-opacity:1;stroke:none;stroke-width:1px;stroke-linecap:butt;stroke-linejoin:miter;stroke-opacity:1"
         id="text9481"
         aria-label="extCSD
register">
        <path
           id="path88"
           style="font-size:25px;line-height:1.25"
           d="m 62.022694,224.35826 c 2.185058,0 3.735351,-0.70801 4.675293,-1.62353 l -0.939942,-1.5625 c -0.891113,0.81787 -2.111816,1.30615 -3.735351,1.30615 -2.233887,0 -3.515625,-1.81885 -3.564453,-4.35791 l 0.03662,-0.061 h 8.569336 v -1.50146 c 0,-3.57666 -1.855469,-5.9082 -5.407715,-5.9082 -3.063965,0 -5.651856,2.80761 -5.651856,6.56738 v 0.53711 c 0,3.90625 2.34375,6.604 6.018067,6.604 z m -0.366211,-11.81641 c 1.989746,0 3.002929,1.42823 3.002929,3.32032 v 0.31738 h -6.091308 l -0.02441,-0.061 c 0.256347,-2.05079 1.501465,-3.57667 3.112793,-3.57667 z" />
        <path
           id="path90"
           style="font-size:25px;line-height:1.25"
           d="m 68.541248,222.56383 v 1.53808 h 5.395508 v -1.53808 l -1.428223,-0.13428 2.807618,-3.52783 2.893066,3.52783 -1.586914,0.13428 v 1.53808 h 5.603027 v -1.53808 l -1.367187,-0.28076 -4.11377,-4.89502 3.57666,-4.66309 1.342774,-0.28076 v -1.55029 h -5.090332 v 1.55029 l 1.416016,0.13428 -2.636719,3.38134 -2.709961,-3.36914 1.318359,-0.14648 v -1.55029 h -5.175781 v 1.55029 l 1.306152,0.28076 3.857422,4.69971 -3.942871,4.8584 z" />
        <path
           id="path92"
           style="font-size:25px;line-height:1.25"
           d="m 87.498768,207.70787 h -2.404785 v 3.18604 H 83.00658 v 1.78222 h 2.087403 v 8.02002 c 0,2.52686 1.23291,3.61328 3.186035,3.61328 0.878906,0 2.01416,-0.1831 2.709961,-0.40283 l -0.32959,-1.57471 c -0.390625,0.0855 -1.208496,0.21973 -1.77002,0.21973 -0.854492,0 -1.391601,-0.58594 -1.391601,-1.85547 v -8.02002 h 2.868652 v -1.78222 h -2.868652 z" />
        <path
           id="path94"
           style="font-size:25px;line-height:1.25"
           d="m 105.9558,211.80943 v -3.833 c -1.25733,-1.11084 -3.22266,-1.9043 -5.51758,-1.9043 -4.895019,0 -7.836913,3.80859 -7.836913,9.02099 v 0.25635 c 0,5.17578 2.685547,9.00879 8.044433,9.00879 1.96533,0 3.93066,-0.48828 5.26123,-1.31836 v -3.85742 h -1.87988 l -0.26856,2.47803 c -0.72021,0.43945 -1.89209,0.74463 -3.02734,0.74463 -3.674317,0 -5.712891,-2.57569 -5.712891,-7.05567 v -0.28076 c 0,-4.11377 1.916504,-7.00684 5.407711,-7.00684 1.42823,0 2.57569,0.3418 3.35694,0.93995 l 0.25635,2.80761 z" />
        <path
           id="path96"
           style="font-size:25px;line-height:1.25"
           d="m 120.33568,211.56529 v -3.55224 c -1.23291,-1.07422 -3.17383,-1.94092 -5.66406,-1.94092 -3.51563,0 -5.87158,2.07519 -5.87158,4.8584 0,2.63672 1.98974,4.37011 5.66406,5.2124 3.08838,0.70801 4.12598,1.7334 4.12598,3.35693 0,1.75782 -1.39161,2.9419 -3.8208,2.9419 -1.42823,0 -2.67334,-0.37842 -3.72315,-1.02539 l -0.40283,-2.79541 h -1.86768 v 3.79638 c 1.81885,1.31836 3.83301,1.94092 5.99366,1.94092 3.77197,0 6.22558,-2.01416 6.22558,-4.88281 0,-2.67334 -1.96533,-4.49219 -5.70068,-5.41992 -3.01514,-0.74463 -4.08936,-1.62354 -4.08936,-3.16162 0,-1.74561 1.40381,-2.89307 3.4668,-2.89307 1.61133,0 2.66113,0.43945 3.39355,1.02539 l 0.40284,2.53906 z" />
        <path
           id="path98"
           style="font-size:25px;line-height:1.25"
           d="m 130.04027,206.32848 h -6.95801 v 1.55029 l 1.98975,0.3418 v 14.00146 l -1.98975,0.3418 v 1.53808 h 7.08008 c 4.63867,0 7.72705,-3.35693 7.72705,-7.78808 v -2.18506 c 0,-4.52881 -3.21045,-7.80029 -7.84912,-7.80029 z m -2.56347,1.89209 h 2.56347 c 3.28369,0 5.44434,2.52685 5.44434,5.88378 v 2.20948 c 0,3.25927 -2.16065,5.9082 -5.44434,5.9082 h -2.56347 z" />
        <path
           id="path100"
           style="font-size:25px;line-height:1.25"
           d="m 55.980213,253.81383 v 1.53808 h 6.384278 v -1.53808 l -1.989747,-0.3418 v -7.48291 c 0.463868,-1.09863 1.330567,-1.83105 2.600098,-1.75781 l 1.672363,0.0976 0.317383,-2.23388 c -0.231933,-0.0855 -0.842285,-0.19531 -1.342773,-0.19531 -1.416016,0 -2.526856,0.80566 -3.271485,2.16064 l -0.02441,-0.23193 -0.207519,-1.68457 h -4.138184 v 1.55029 l 1.989746,0.3418 v 9.43603 z" />
        <path
           id="path102"
           style="font-size:25px;line-height:1.25"
           d="m 72.215565,255.60826 c 2.185058,0 3.735351,-0.70801 4.675293,-1.62353 l -0.939942,-1.5625 c -0.891113,0.81787 -2.111816,1.30615 -3.735351,1.30615 -2.233887,0 -3.515625,-1.81885 -3.564453,-4.35791 l 0.03662,-0.061 h 8.569336 v -1.50146 c 0,-3.57666 -1.855469,-5.9082 -5.407715,-5.9082 -3.063965,0 -5.651856,2.80761 -5.651856,6.56738 v 0.53711 c 0,3.90625 2.34375,6.604 6.018067,6.604 z m -0.366211,-11.81641 c 1.989746,0 3.002929,1.42823 3.002929,3.32032 v 0.31738 h -6.091308 l -0.02441,-0.061 c 0.256347,-2.05079 1.501465,-3.57667 3.112793,-3.57667 z" />
        <path
           id="path104"
           style="font-size:25px;line-height:1.25"
           d="m 79.613026,248.99205 v 0.25635 c 0,3.79638 1.977539,6.35986 5.212402,6.35986 1.5625,0 2.758789,-0.57373 3.625488,-1.68457 v 1.25733 c 0,2.23388 -0.964355,3.479 -3.112793,3.479 -1.159668,0 -2.478027,-0.3418 -3.36914,-0.81787 l -0.622559,1.86767 c 1.123047,0.59815 2.746582,0.97657 4.016113,0.97657 3.515625,0 5.493164,-2.08741 5.493164,-5.50537 V 244.036 l 1.635743,-0.35401 v -1.53808 h -3.66211 l -0.219726,1.66015 c -0.842285,-1.23291 -2.09961,-1.90429 -3.759766,-1.90429 -3.271484,0 -5.236816,2.84423 -5.236816,7.09228 z m 2.404785,0.25635 v -0.25635 c 0,-3.01514 1.135254,-5.13916 3.430176,-5.13916 1.403808,0 2.380371,0.70801 3.002929,1.83105 v 6.07911 c -0.634765,1.20849 -1.574707,1.89209 -3.027343,1.89209 -2.294922,0 -3.405762,-1.75782 -3.405762,-4.40674 z" />
        <path
           id="path106"
           style="font-size:25px;line-height:1.25"
           d="m 97.996815,238.88463 v -2.57569 h -2.526856 v 2.57569 z m -4.394532,14.9292 v 1.53808 h 6.384278 v -1.53808 l -1.989746,-0.3418 v -11.32812 h -4.394532 v 1.55029 l 1.989747,0.3418 v 9.43603 z" />
        <path
           id="path108"
           style="font-size:25px;line-height:1.25"
           d="m 111.60765,246.17223 -0.12207,-3.01514 c -1.06201,-0.76904 -2.42919,-1.25732 -4.43115,-1.25732 -2.9541,0 -4.94385,1.63574 -4.94385,3.77197 0,2.05078 1.45264,3.19824 4.65088,3.93066 2.2461,0.5127 2.96631,1.2085 2.96631,2.2461 0,1.11084 -0.78125,1.95312 -2.73437,1.95312 -0.98877,0 -1.79444,-0.15869 -2.70996,-0.53711 l -0.45166,-1.89209 h -1.81885 l 0.0244,3.13721 c 1.74561,0.75683 3.18604,1.09863 4.95606,1.09863 3.55224,0 5.13916,-1.69678 5.13916,-3.93066 0,-1.95313 -1.26953,-3.24707 -4.94385,-4.11377 -2.22168,-0.5249 -2.66113,-1.0376 -2.66113,-1.96533 0,-1.06202 1.02539,-1.84327 2.52685,-1.84327 1.00098,0 1.78223,0.24414 2.35596,0.65918 l 0.39062,1.75782 z" />
        <path
           id="path110"
           style="font-size:25px;line-height:1.25"
           d="m 118.00414,238.95787 h -2.40479 v 3.18604 h -2.0874 v 1.78222 h 2.0874 v 8.02002 c 0,2.52686 1.23291,3.61328 3.18604,3.61328 0.87891,0 2.01416,-0.1831 2.70996,-0.40283 l -0.32959,-1.57471 c -0.39062,0.0855 -1.2085,0.21973 -1.77002,0.21973 -0.85449,0 -1.3916,-0.58594 -1.3916,-1.85547 v -8.02002 h 2.86865 v -1.78222 h -2.86865 z" />
        <path
           id="path112"
           style="font-size:25px;line-height:1.25"
           d="m 129.0515,255.60826 c 2.18506,0 3.73535,-0.70801 4.6753,-1.62353 l -0.93995,-1.5625 c -0.89111,0.81787 -2.11181,1.30615 -3.73535,1.30615 -2.23388,0 -3.51562,-1.81885 -3.56445,-4.35791 l 0.0366,-0.061 h 8.56934 v -1.50146 c 0,-3.57666 -1.85547,-5.9082 -5.40772,-5.9082 -3.06396,0 -5.65185,2.80761 -5.65185,6.56738 v 0.53711 c 0,3.90625 2.34375,6.604 6.01806,6.604 z m -0.36621,-11.81641 c 1.98975,0 3.00293,1.42823 3.00293,3.32032 v 0.31738 h -6.09131 l -0.0244,-0.061 c 0.25635,-2.05079 1.50146,-3.57667 3.11279,-3.57667 z" />
        <path
           id="path114"
           style="font-size:25px;line-height:1.25"
           d="m 135.93627,253.81383 v 1.53808 h 6.38428 v -1.53808 l -1.98975,-0.3418 v -7.48291 c 0.46387,-1.09863 1.33057,-1.83105 2.6001,-1.75781 l 1.67236,0.0976 0.31738,-2.23388 c -0.23193,-0.0855 -0.84228,-0.19531 -1.34277,-0.19531 -1.41602,0 -2.52686,0.80566 -3.27148,2.16064 l -0.0244,-0.23193 -0.20752,-1.68457 h -4.13818 v 1.55029 l 1.98974,0.3418 v 9.43603 z" />
      </g>
      <g
         transform="matrix(0,1.4964239,-1.492135,0,447.88172,-181.87835)"
         id="g17369">
        <path
           d="m 294.84154,141.85892 a 5.5558391,5.5558391 0 0 1 -5.55583,5.55584 5.5558391,5.5558391 0 0 1 -5.55584,-5.55584 5.5558391,5.5558391 0 0 1 5.55584,-5.55584 5.5558391,5.5558391 0 0 1 5.55583,5.55584"
           style="fill:none;fill-opacity:1;stroke:#b80078;stroke-width:4;stroke-miterlimit:4;stroke-dasharray:none;stroke-dashoffset:0;stroke-opacity:1"
           id="path7740-2-0" />
        <path
           d="m 283.05581,179.85892 a 5.5558391,5.5558391 0 0 1 -5.55584,5.55584 5.5558391,5.5558391 0 0 1 -5.55584,-5.55584 5.5558391,5.5558391 0 0 1 5.55584,-5.55584 5.5558391,5.5558391 0 0 1 5.55584,5.55584"
           style="fill:none;fill-opacity:1;stroke:#b80078;stroke-width:4;stroke-miterlimit:4;stroke-dasharray:none;stroke-dashoffset:0;stroke-opacity:1"
           id="path7740-2-3-4" />
        <path
           sodipodi:nodetypes="cc"
           inkscape:connector-curvature="0"
           id="path7813-66"
           d="m 289.45713,147.28734 -10.17857,28.05801"
           style="fill:none;fill-opacity:1;fill-rule:evenodd;stroke:#b80078;stroke-width:4;stroke-linecap:butt;stroke-linejoin:miter;stroke-miterlimit:4;stroke-dasharray:none;stroke-opacity:1" />
        <path
           d="m 271.2701,141.85892 a 5.5558391,5.5558391 0 0 1 -5.55584,5.55584 5.5558391,5.5558391 0 0 1 -5.55584,-5.55584 5.5558391,5.5558391 0 0 1 5.55584,-5.55584 5.5558391,5.5558391 0 0 1 5.55584,5.55584"
           style="fill:none;fill-opacity:1;stroke:#b80078;stroke-width:4;stroke-miterlimit:4;stroke-dasharray:none;stroke-dashoffset:0;stroke-opacity:1"
           id="path7740-2-3-4-1" />
      </g>
    </g>
    <path
       sodipodi:nodetypes="cc"
       inkscape:connector-curvature="0"
       id="path8421-2"
       d="M 559.58759,204.89227 H 400.83248"
       style="fill:#78b800;fill-opacity:1;fill-rule:evenodd;stroke:#78b800;stroke-width:10;stroke-linecap:butt;stroke-linejoin:miter;stroke-miterlimit:4;stroke-dasharray:none;stroke-opacity:1;marker-end:url(#Arrow2Send-3)" />
    <path
       d="M 568.71588,185.65132 H 695.9951 v 40.4061 H 568.71588 Z"
       style="fill:#0078b8;fill-opacity:1;stroke:#0078b8;stroke-width:5;stroke-miterlimit:4;stroke-dasharray:none;stroke-dashoffset:0;stroke-opacity:1"
       id="rect10479" />
    <g
       style="font-style:normal;font-weight:normal;line-height:0%;font-family:sans-serif;letter-spacing:0px;word-spacing:0px;fill:#ffffff;fill-opacity:1;stroke:none;stroke-width:1px;stroke-linecap:butt;stroke-linejoin:miter;stroke-opacity:1"
       id="text10481"
       aria-label="boot.img">
      <path
         id="path121"
         style="font-style:normal;font-variant:normal;font-weight:normal;font-stretch:normal;font-size:22.5px;line-height:1.25;font-family:'Roboto Slab';-inkscape-font-specification:'Roboto Slab';fill:#ffffff"
         d="m 598.35828,206.53003 v -0.23071 c 0,-3.82325 -1.72486,-6.38306 -4.65821,-6.38306 -1.48315,0 -2.58178,0.57129 -3.32885,1.62598 v -6.65772 h -3.95508 v 1.39527 l 1.79077,0.30761 v 15.43579 h 1.86767 l 0.19776,-1.5271 c 0.75806,1.15357 1.90063,1.75782 3.44971,1.75782 2.8894,0 4.63623,-2.29615 4.63623,-5.72388 z m -2.1753,-0.23071 v 0.23071 c 0,2.38403 -0.97778,3.96606 -3.01025,3.96606 -1.32935,0 -2.26318,-0.69213 -2.80151,-1.79077 v -5.25146 c 0.53833,-1.08765 1.45019,-1.77979 2.77954,-1.77979 2.05444,0 3.03222,1.88965 3.03222,4.62525 z" />
      <path
         id="path123"
         style="font-style:normal;font-variant:normal;font-weight:normal;font-stretch:normal;font-size:22.5px;line-height:1.25;font-family:'Roboto Slab';-inkscape-font-specification:'Roboto Slab';fill:#ffffff"
         d="m 600.42371,205.96973 v 0.2417 c 0,3.52661 2.03247,6.04248 5.32837,6.04248 3.26293,0 5.30639,-2.4939 5.30639,-6.04248 v -0.2417 c 0,-3.52661 -2.04346,-6.05347 -5.32837,-6.05347 -3.26294,0 -5.30639,2.53784 -5.30639,6.05347 z m 2.1643,0.2417 v -0.2417 c 0,-2.4939 1.06568,-4.35059 3.14209,-4.35059 2.07642,0 3.16407,1.85669 3.16407,4.35059 v 0.2417 c 0,2.51586 -1.08765,4.35058 -3.14209,4.35058 -2.09839,0 -3.16407,-1.83472 -3.16407,-4.35058 z" />
      <path
         id="path125"
         style="font-style:normal;font-variant:normal;font-weight:normal;font-stretch:normal;font-size:22.5px;line-height:1.25;font-family:'Roboto Slab';-inkscape-font-specification:'Roboto Slab';fill:#ffffff"
         d="m 613.01404,205.96973 v 0.2417 c 0,3.52661 2.03247,6.04248 5.32837,6.04248 3.26294,0 5.30639,-2.4939 5.30639,-6.04248 v -0.2417 c 0,-3.52661 -2.04345,-6.05347 -5.32837,-6.05347 -3.26293,0 -5.30639,2.53784 -5.30639,6.05347 z m 2.1643,0.2417 v -0.2417 c 0,-2.4939 1.06568,-4.35059 3.14209,-4.35059 2.07642,0 3.16407,1.85669 3.16407,4.35059 v 0.2417 c 0,2.51586 -1.08765,4.35058 -3.14209,4.35058 -2.09839,0 -3.16407,-1.83472 -3.16407,-4.35058 z" />
      <path
         id="path127"
         style="font-style:normal;font-variant:normal;font-weight:normal;font-stretch:normal;font-size:22.5px;line-height:1.25;font-family:'Roboto Slab';-inkscape-font-specification:'Roboto Slab';fill:#ffffff"
         d="m 628.76843,197.26855 h -2.1643 v 2.86744 h -1.87867 v 1.604 h 1.87867 v 7.21802 c 0,2.27417 1.10962,3.25195 2.86743,3.25195 0.79101,0 1.81274,-0.16479 2.43896,-0.36255 l -0.29663,-1.41723 c -0.35156,0.0769 -1.08764,0.19775 -1.59302,0.19775 -0.76904,0 -1.25244,-0.52734 -1.25244,-1.66992 v -7.21802 h 2.58179 v -1.604 h -2.58179 z" />
      <path
         id="path129"
         style="font-style:normal;font-variant:normal;font-weight:normal;font-stretch:normal;font-size:22.5px;line-height:1.25;font-family:'Roboto Slab';-inkscape-font-specification:'Roboto Slab';fill:#ffffff"
         d="m 636.23914,212.02319 v -2.21923 h -2.16431 v 2.21923 z" />
      <path
         id="path131"
         style="font-style:normal;font-variant:normal;font-weight:normal;font-stretch:normal;font-size:22.5px;line-height:1.25;font-family:'Roboto Slab';-inkscape-font-specification:'Roboto Slab';fill:#ffffff"
         d="m 642.58923,197.20264 v -2.31812 h -2.27417 v 2.31812 z m -3.95507,13.43628 v 1.38427 H 644.38 v -1.38427 l -1.79077,-0.30762 v -10.19531 h -3.95507 v 1.39526 l 1.79077,0.30762 v 8.49243 z" />
      <path
         id="path133"
         style="font-style:normal;font-variant:normal;font-weight:normal;font-stretch:normal;font-size:22.5px;line-height:1.25;font-family:'Roboto Slab';-inkscape-font-specification:'Roboto Slab';fill:#ffffff"
         d="m 645.87415,201.53125 1.79077,0.30762 v 8.49243 l -1.79077,0.30762 v 1.38427 H 651.62 v -1.38427 l -1.79078,-0.30762 v -7.10816 c 0.45044,-0.97778 1.2854,-1.54907 2.60376,-1.54907 1.57105,0 2.417,0.98877 2.417,3.219 v 5.43823 l -1.79078,0.30762 v 1.38427 h 5.74585 v -1.38427 l -1.79077,-0.30762 v -5.85571 c 0.14282,-1.61499 1.10962,-2.80152 2.61475,-2.80152 1.58203,0 2.39502,0.87891 2.39502,3.219 v 5.43823 l -1.79077,0.30762 v 1.38427 h 5.75683 v -1.38427 l -1.79077,-0.30762 v -5.41626 c 0,-3.33984 -1.50513,-4.99878 -3.9331,-4.99878 -1.63697,0 -2.88941,0.84595 -3.63648,2.19727 -0.57129,-1.46119 -1.73584,-2.19727 -3.31787,-2.19727 -1.58203,0 -2.80151,0.63721 -3.55957,1.7688 l -0.14282,-1.54907 h -3.73535 z" />
      <path
         id="path135"
         style="font-style:normal;font-variant:normal;font-weight:normal;font-stretch:normal;font-size:22.5px;line-height:1.25;font-family:'Roboto Slab';-inkscape-font-specification:'Roboto Slab';fill:#ffffff"
         d="m 667.48425,206.29932 v 0.23071 c 0,3.41675 1.77979,5.72388 4.69117,5.72388 1.40625,0 2.48291,-0.51636 3.26293,-1.51612 v 1.13159 c 0,2.0105 -0.86792,3.13111 -2.80151,3.13111 -1.0437,0 -2.23022,-0.30762 -3.03223,-0.73609 l -0.5603,1.68091 c 1.01074,0.53833 2.47193,0.87891 3.6145,0.87891 3.16407,0 4.94385,-1.87866 4.94385,-4.95484 v -10.03051 l 1.47217,-0.31861 v -1.38427 h -3.2959 l -0.19775,1.49414 c -0.75806,-1.10962 -1.88965,-1.71387 -3.38379,-1.71387 -2.94434,0 -4.71314,2.55981 -4.71314,6.38306 z m 2.16431,0.23071 v -0.23071 c 0,-2.71363 1.02173,-4.62525 3.08716,-4.62525 1.26343,0 2.14233,0.63721 2.70263,1.64795 v 5.47119 c -0.57128,1.08765 -1.41723,1.70288 -2.7246,1.70288 -2.06543,0 -3.06519,-1.58203 -3.06519,-3.96606 z" />
    </g>
    <g
       style="font-style:normal;font-variant:normal;font-weight:normal;font-stretch:normal;font-size:20px;line-height:125%;font-family:FontAwesome;-inkscape-font-specification:FontAwesome;letter-spacing:0px;word-spacing:0px;fill:#78b800;fill-opacity:1;stroke:none;stroke-width:0.9375px;stroke-linecap:butt;stroke-linejoin:miter;stroke-opacity:1"
       id="text926"
       aria-label="update">
      <path
         id="path138"
         style="font-style:normal;font-variant:normal;font-weight:normal;font-stretch:normal;font-size:25px;font-family:'Roboto Slab';-inkscape-font-specification:'Roboto Slab';fill:#78b800;fill-opacity:1;stroke-width:0.9375px"
         d="m 461.66788,177.79848 0.15869,1.95312 h 3.67432 v -1.53808 l -1.51368,-0.3418 v -11.32813 h -4.1748 v 1.5503 l 1.77002,0.34179 v 7.6294 c -0.57373,1.26953 -1.67237,1.98974 -3.38135,1.98974 -1.75781,0 -2.56348,-0.8789 -2.56348,-3.69873 v -7.8125 h -3.91845 v 1.5503 l 1.51367,0.34179 v 5.896 c 0,3.89404 1.69678,5.67627 4.56543,5.67627 1.70898,0 3.03955,-0.79346 3.86963,-2.20947 z" />
      <path
         id="path140"
         style="font-style:normal;font-variant:normal;font-weight:normal;font-stretch:normal;font-size:25px;font-family:'Roboto Slab';-inkscape-font-specification:'Roboto Slab';fill:#78b800;fill-opacity:1;stroke-width:0.9375px"
         d="m 466.69717,168.09389 1.98975,0.34179 v 14.50196 l -1.86768,0.34179 v 1.5503 h 6.37207 v -1.5503 l -2.0996,-0.34179 v -4.55323 c 0.86669,1.07422 2.0874,1.62354 3.71093,1.62354 3.21045,0 5.13916,-2.55127 5.13916,-6.35986 v -0.25635 c 0,-4.26026 -1.90429,-7.09229 -5.17578,-7.09229 -1.66015,0 -2.91748,0.64698 -3.79638,1.85547 l -0.21973,-1.61133 h -4.05274 z m 10.82764,5.29785 v 0.25635 c 0,2.64892 -1.18408,4.47998 -3.4668,4.47998 -1.41601,0 -2.36816,-0.62256 -2.9663,-1.70899 v -6.4331 c 0.59814,-1.07422 1.5747,-1.7334 2.94189,-1.7334 2.30713,0 3.49121,2.12402 3.49121,5.13916 z" />
      <path
         id="path142"
         style="font-style:normal;font-variant:normal;font-weight:normal;font-stretch:normal;font-size:25px;font-family:'Roboto Slab';-inkscape-font-specification:'Roboto Slab';fill:#78b800;fill-opacity:1;stroke-width:0.9375px"
         d="m 491.12344,178.1769 0.19532,1.5747 h 4.07714 v -1.53808 l -1.98974,-0.3418 v -17.16309 h -4.39453 v 1.5503 l 1.98974,0.34179 v 5.3833 c -0.84228,-1.08642 -2.03857,-1.68457 -3.60107,-1.68457 -3.25928,0 -5.16358,2.84424 -5.16358,7.09229 v 0.25635 c 0,3.80859 1.91651,6.35986 5.13917,6.35986 1.64794,0 2.88085,-0.62256 3.74755,-1.83105 z m -6.48193,-4.52881 v -0.25635 c 0,-3.03955 1.07422,-5.13916 3.36914,-5.13916 1.3794,0 2.36816,0.6958 2.99072,1.80664 v 6.12793 c -0.63476,1.18408 -1.58691,1.86767 -3.01513,1.86767 -2.28272,0 -3.34473,-1.75781 -3.34473,-4.40673 z" />
      <path
         id="path144"
         style="font-style:normal;font-variant:normal;font-weight:normal;font-stretch:normal;font-size:25px;font-family:'Roboto Slab';-inkscape-font-specification:'Roboto Slab';fill:#78b800;fill-opacity:1;stroke-width:0.9375px"
         d="m 505.55215,179.7516 h 3.45459 v -1.53808 l -1.28173,-0.13428 c -0.0366,-0.32959 -0.0366,-0.64697 -0.0366,-0.98877 v -6.35986 c 0,-2.84424 -1.92872,-4.43116 -5.13917,-4.43116 -1.9165,0 -3.51562,0.50049 -4.6997,1.46485 v 3.02734 h 1.85547 l 0.25634,-1.84326 c 0.65918,-0.47607 1.44043,-0.75684 2.55127,-0.75684 1.75782,0 2.771,0.91553 2.771,2.51465 v 1.29395 h -2.35596 c -3.6499,0 -5.81054,1.66015 -5.81054,4.16259 0,2.44141 1.46484,3.84522 4.21142,3.84522 1.57471,0 3.03955,-0.89111 3.96729,-2.0752 0.0366,0.57373 0.10986,1.09864 0.25634,1.81885 z m -3.86962,-1.75781 c -1.45264,0 -2.16065,-0.62256 -2.16065,-1.78223 0,-1.30615 1.11084,-2.56347 3.32031,-2.56347 h 2.44141 v 2.39257 c -0.57373,1.07422 -2.00195,1.95313 -3.60107,1.95313 z" />
      <path
         id="path146"
         style="font-style:normal;font-variant:normal;font-weight:normal;font-stretch:normal;font-size:25px;font-family:'Roboto Slab';-inkscape-font-specification:'Roboto Slab';fill:#78b800;fill-opacity:1;stroke-width:0.9375px"
         d="m 514.75626,163.35756 h -2.40479 v 3.18603 h -2.0874 v 1.78223 h 2.0874 v 8.02002 c 0,2.52686 1.23291,3.61328 3.18604,3.61328 0.8789,0 2.01416,-0.1831 2.70996,-0.40283 l -0.32959,-1.57471 c -0.39063,0.0854 -1.2085,0.21973 -1.77002,0.21973 -0.85449,0 -1.3916,-0.58594 -1.3916,-1.85547 v -8.02002 h 2.86865 v -1.78223 h -2.86865 z" />
      <path
         id="path148"
         style="font-style:normal;font-variant:normal;font-weight:normal;font-stretch:normal;font-size:25px;font-family:'Roboto Slab';-inkscape-font-specification:'Roboto Slab';fill:#78b800;fill-opacity:1;stroke-width:0.9375px"
         d="m 525.80362,180.00795 c 2.18506,0 3.73535,-0.70801 4.67529,-1.62354 l -0.93994,-1.5625 c -0.89111,0.81788 -2.11182,1.30616 -3.73535,1.30616 -2.23389,0 -3.51563,-1.81885 -3.56445,-4.35791 l 0.0366,-0.061 h 8.56933 v -1.50146 c 0,-3.57666 -1.85547,-5.90821 -5.40771,-5.90821 -3.06397,0 -5.65186,2.80762 -5.65186,6.56739 v 0.53711 c 0,3.90625 2.34375,6.604 6.01807,6.604 z m -0.36621,-11.81641 c 1.98974,0 3.00293,1.42823 3.00293,3.32032 v 0.31738 h -6.09131 l -0.0244,-0.061 c 0.25634,-2.05078 1.50146,-3.57666 3.11279,-3.57666 z" />
    </g>
    <g
       style="font-style:normal;font-variant:normal;font-weight:normal;font-stretch:normal;font-size:20px;line-height:125%;font-family:FontAwesome;-inkscape-font-specification:FontAwesome;letter-spacing:0px;word-spacing:0px;fill:#000000;fill-opacity:1;stroke:none;stroke-width:0.9375px;stroke-linecap:butt;stroke-linejoin:miter;stroke-opacity:1"
       id="text1020"
       aria-label="eMMC">
      <path
         id="path151"
         style="font-style:normal;font-variant:normal;font-weight:normal;font-stretch:normal;font-size:40px;font-family:'Roboto Slab';-inkscape-font-specification:'Roboto Slab';stroke-width:0.9375px"
         d="m 273.96487,497.72873 c 3.4961,0 5.97657,-1.13281 7.48047,-2.59766 l -1.5039,-2.5 c -1.42578,1.3086 -3.37891,2.08985 -5.97657,2.08985 -3.57421,0 -5.625,-2.91016 -5.70312,-6.97266 l 0.0586,-0.0977 h 13.71094 v -2.40234 c 0,-5.72266 -2.96875,-9.45312 -8.65234,-9.45312 -4.90235,0 -9.04297,4.49218 -9.04297,10.50781 v 0.85937 c 0,6.25 3.75,10.56641 9.6289,10.56641 z m -0.58593,-18.90625 c 3.18359,0 4.80468,2.28516 4.80468,5.3125 v 0.50781 h -9.74609 l -0.0391,-0.0976 c 0.41015,-3.28125 2.40234,-5.72266 4.98047,-5.72266 z" />
      <path
         id="path153"
         style="font-style:normal;font-variant:normal;font-weight:normal;font-stretch:normal;font-size:40px;font-family:'Roboto Slab';-inkscape-font-specification:'Roboto Slab';stroke-width:0.9375px"
         d="m 313.49612,474.11545 0.0977,0.0195 v 20.17578 l -3.35937,0.54688 v 2.46093 h 10.21484 v -2.46093 l -3.18359,-0.54688 v -22.40234 l 3.18359,-0.54688 v -2.48047 h -8.57422 l -8.86719,21.58203 h -0.11718 l -9.16016,-21.58203 h -8.32031 v 2.48047 l 3.18359,0.54688 v 22.40234 l -3.18359,0.54688 v 2.46093 h 10.21484 v -2.46093 l -3.4375,-0.54688 v -8.24219 l -0.13672,-11.89453 0.0977,-0.0195 9.55078,22.14844 h 2.55859 z" />
      <path
         id="path155"
         style="font-style:normal;font-variant:normal;font-weight:normal;font-stretch:normal;font-size:40px;font-family:'Roboto Slab';-inkscape-font-specification:'Roboto Slab';stroke-width:0.9375px"
         d="m 352.20706,474.11545 0.0977,0.0195 v 20.17578 l -3.35938,0.54688 v 2.46093 h 10.21485 v -2.46093 l -3.1836,-0.54688 v -22.40234 l 3.1836,-0.54688 v -2.48047 h -8.57422 l -8.86719,21.58203 h -0.11719 l -9.16015,-21.58203 h -8.32032 v 2.48047 l 3.1836,0.54688 v 22.40234 l -3.1836,0.54688 v 2.46093 h 10.21485 v -2.46093 l -3.4375,-0.54688 v -8.24219 l -0.13672,-11.89453 0.0977,-0.0195 9.55078,22.14844 h 2.55859 z" />
      <path
         id="path157"
         style="font-style:normal;font-variant:normal;font-weight:normal;font-stretch:normal;font-size:40px;font-family:'Roboto Slab';-inkscape-font-specification:'Roboto Slab';stroke-width:0.9375px"
         d="m 383.92581,477.6506 v -6.13281 c -2.01172,-1.77734 -5.15625,-3.04687 -8.82812,-3.04687 -7.83203,0 -12.53907,6.09375 -12.53907,14.43359 v 0.41016 c 0,8.28125 4.29688,14.41406 12.8711,14.41406 3.14453,0 6.28906,-0.78125 8.41797,-2.10938 v -6.17187 h -3.00782 l -0.42968,3.96484 c -1.15235,0.70313 -3.02735,1.19141 -4.84375,1.19141 -5.87891,0 -9.14063,-4.12109 -9.14063,-11.28906 v -0.44922 c 0,-6.58203 3.06641,-11.21094 8.65235,-11.21094 2.28515,0 4.12109,0.54688 5.37109,1.50391 l 0.41016,4.49218 z" />
    </g>
  </g>
</svg>
