<?xml version="1.0" encoding="UTF-8" standalone="no"?>
<svg
   xmlns:dc="http://purl.org/dc/elements/1.1/"
   xmlns:cc="http://creativecommons.org/ns#"
   xmlns:rdf="http://www.w3.org/1999/02/22-rdf-syntax-ns#"
   xmlns:svg="http://www.w3.org/2000/svg"
   xmlns="http://www.w3.org/2000/svg"
   xmlns:sodipodi="http://sodipodi.sourceforge.net/DTD/sodipodi-0.dtd"
   xmlns:inkscape="http://www.inkscape.org/namespaces/inkscape"
   sodipodi:docname="rauc-bundle.svg"
   inkscape:version="1.0rc1 (09960d6f05, 2020-04-09)"
   id="svg14903"
   version="1.1"
   viewBox="0 0 185.91369 101.5469"
   height="101.5469mm"
   width="185.91368mm">
  <defs
     id="defs14897">
    <marker
       inkscape:isstock="true"
       style="overflow:visible"
       id="marker6029-1"
       refX="0"
       refY="0"
       orient="auto"
       inkscape:stockid="TriangleOutS">
      <path
         transform="scale(0.2)"
         style="fill:#808080;fill-opacity:1;fill-rule:evenodd;stroke:#808080;stroke-width:1.00000003pt;stroke-opacity:1"
         d="M 5.77,0 -2.88,5 V -5 Z"
         id="path5921-3"
         inkscape:connector-curvature="0" />
    </marker>
  </defs>
  <sodipodi:namedview
     inkscape:document-rotation="0"
     inkscape:lockguides="false"
     inkscape:snap-smooth-nodes="true"
     inkscape:snap-intersection-paths="true"
     inkscape:object-paths="true"
     inkscape:snap-others="false"
     inkscape:snap-nodes="true"
     inkscape:object-nodes="true"
     fit-margin-bottom="0"
     fit-margin-right="0"
     fit-margin-left="0"
     fit-margin-top="0"
     inkscape:window-maximized="0"
     inkscape:window-y="0"
     inkscape:window-x="1920"
     inkscape:window-height="1440"
     inkscape:window-width="2560"
     showgrid="false"
     inkscape:current-layer="layer1"
     inkscape:document-units="mm"
     inkscape:cy="261.00291"
     inkscape:cx="348.16114"
     inkscape:zoom="0.98994949"
     inkscape:pageshadow="2"
     inkscape:pageopacity="0.0"
     borderopacity="1.0"
     bordercolor="#666666"
     pagecolor="#ffffff"
     id="base" />
  <metadata
     id="metadata14900">
    <rdf:RDF>
      <cc:Work
         rdf:about="">
        <dc:format>image/svg+xml</dc:format>
        <dc:type
           rdf:resource="http://purl.org/dc/dcmitype/StillImage" />
        <dc:title />
      </cc:Work>
    </rdf:RDF>
  </metadata>
  <g
     transform="translate(-4.7345705,-17.934227)"
     id="layer1"
     inkscape:groupmode="layer"
     inkscape:label="Ebene 1">
    <path
       d="M 52.703785,110.13084 H 152.82371 v 8.98057 H 52.703785 Z"
       style="opacity:1;vector-effect:none;fill:#4ca0cd;fill-opacity:1;stroke:#4ca0cd;stroke-width:0.73942;stroke-linecap:butt;stroke-linejoin:round;stroke-miterlimit:4;stroke-dasharray:none;stroke-dashoffset:0;stroke-opacity:1;paint-order:stroke markers fill"
       id="rect15448-0" />
    <path
       d="M 52.834076,93.792618 H 152.69342 V 110.26113 H 52.834076 Z"
       style="opacity:1;vector-effect:none;fill:#0078b8;fill-opacity:1;stroke:#0078b8;stroke-width:1;stroke-linecap:butt;stroke-linejoin:round;stroke-miterlimit:4;stroke-dasharray:none;stroke-dashoffset:0;stroke-opacity:1;paint-order:stroke markers fill"
       id="rect15448" />
    <g
       style="font-style:normal;font-variant:normal;font-weight:normal;font-stretch:normal;font-size:3.38667px;line-height:0%;font-family:'Roboto Slab';-inkscape-font-specification:'Roboto Slab';letter-spacing:0px;word-spacing:0px;fill:#666666;fill-opacity:1;stroke:none;stroke-width:0.282222px;stroke-linecap:butt;stroke-linejoin:miter;stroke-opacity:1"
       id="text12101-8"
       aria-label="sign">
      <path
         id="path53"
         style="font-size:7.76111px;line-height:1.25;stroke-width:0.282222px"
         d="m 28.777318,110.07411 -0.0379,-0.93604 c -0.329696,-0.23874 -0.754132,-0.39032 -1.375627,-0.39032 -0.917084,0 -1.53479,0.5078 -1.53479,1.17098 0,0.63666 0.450963,0.99288 1.44384,1.22026 0.697287,0.15916 0.920873,0.37517 0.920873,0.69728 0,0.34486 -0.242534,0.60634 -0.848871,0.60634 -0.306958,0 -0.557072,-0.0493 -0.841292,-0.16674 l -0.140215,-0.58739 h -0.564652 l 0.0076,0.97393 c 0.541913,0.23495 0.989086,0.34106 1.538579,0.34106 1.102775,0 1.595424,-0.52675 1.595424,-1.22025 0,-0.60634 -0.394119,-1.00804 -1.53479,-1.2771 -0.689708,-0.16295 -0.826134,-0.32211 -0.826134,-0.61012 0,-0.3297 0.318327,-0.57224 0.784448,-0.57224 0.310748,0 0.553282,0.0758 0.731394,0.20464 l 0.121267,0.54571 z" />
      <path
         id="path55"
         style="font-size:7.76111px;line-height:1.25;stroke-width:0.282222px"
         d="m 30.895706,107.81171 v -0.7996 h -0.784448 v 0.7996 z m -1.364257,4.63469 v 0.47749 h 1.981963 v -0.47749 l -0.617706,-0.10611 v -3.51675 h -1.364257 v 0.48128 l 0.617705,0.10611 v 2.92936 z" />
      <path
         id="path57"
         style="font-size:7.76111px;line-height:1.25;stroke-width:0.282222px"
         d="m 32.028798,110.94951 v 0.0796 c 0,1.17856 0.613916,1.97438 1.618161,1.97438 0.485069,0 0.856451,-0.17811 1.125513,-0.52296 v 0.39032 c 0,0.6935 -0.299379,1.08004 -0.966349,1.08004 -0.360013,0 -0.76929,-0.10611 -1.045931,-0.2539 l -0.19327,0.57981 c 0.348643,0.18569 0.852661,0.30317 1.24678,0.30317 1.091406,0 1.705322,-0.64803 1.705322,-1.70912 v -3.4599 l 0.507807,-0.1099 v -0.47749 h -1.136882 l -0.06821,0.51538 c -0.261482,-0.38275 -0.651811,-0.59117 -1.167198,-0.59117 -1.015614,0 -1.62574,0.88297 -1.62574,2.20176 z m 0.746552,0.0796 v -0.0796 c 0,-0.93604 0.352433,-1.59543 1.064879,-1.59543 0.435804,0 0.738973,0.2198 0.932243,0.56844 v 1.88723 c -0.19706,0.37517 -0.488859,0.58738 -0.939822,0.58738 -0.712446,0 -1.0573,-0.5457 -1.0573,-1.36804 z" />
      <path
         id="path59"
         style="font-size:7.76111px;line-height:1.25;stroke-width:0.282222px"
         d="m 36.398211,112.4464 v 0.47749 h 1.981964 v -0.47749 l -0.617706,-0.10611 v -2.4064 c 0.197059,-0.36001 0.538124,-0.57981 0.966349,-0.57981 0.587389,0 0.86782,0.27285 0.86782,0.99667 v 1.98954 l -0.617706,0.10611 v 0.47749 h 1.981963 v -0.47749 l -0.617705,-0.10611 v -2.0047 c 0,-1.08004 -0.507807,-1.58784 -1.390785,-1.58784 -0.526755,0 -0.943612,0.25011 -1.216463,0.68591 l -0.05306,-0.61012 h -1.284676 v 0.48128 l 0.617706,0.10611 v 2.92936 z" />
    </g>
    <path
       sodipodi:nodetypes="cc"
       inkscape:connector-curvature="0"
       id="path5767-0"
       d="m 20.149064,102.02687 h 24.64277"
       style="fill:none;fill-rule:evenodd;stroke:#808080;stroke-width:1.41111112;stroke-linecap:butt;stroke-linejoin:miter;stroke-miterlimit:4;stroke-dasharray:none;stroke-opacity:1;marker-end:url(#marker6029-1)" />
    <g
       style="font-style:normal;font-variant:normal;font-weight:normal;font-stretch:normal;font-size:22.6383px;line-height:125%;font-family:FontAwesome;-inkscape-font-specification:FontAwesome;letter-spacing:0px;word-spacing:0px;fill:#0078b8;fill-opacity:1;stroke:none;stroke-width:1.06117px;stroke-linecap:butt;stroke-linejoin:miter;stroke-opacity:1"
       id="text19581"
       aria-label="">
      <path
         id="path62"
         style="fill:#0078b8;fill-opacity:1;stroke-width:1.06117px"
         d="m 77.426515,53.361453 c 0,-0.555851 -0.454788,-1.010638 -1.010639,-1.010638 -0.555851,0 -1.010638,0.454787 -1.010638,1.010638 0,0.555852 0.454787,1.010639 1.010638,1.010639 0.555851,0 1.010639,-0.454787 1.010639,-1.010639 z m 3.234043,0 c 0,-0.555851 -0.454788,-1.010638 -1.010639,-1.010638 -0.555851,0 -1.010638,0.454787 -1.010638,1.010638 0,0.555852 0.454787,1.010639 1.010638,1.010639 0.555851,0 1.010639,-0.454787 1.010639,-1.010639 z m 1.414893,2.021277 c 0,0.214761 -0.189494,0.404256 -0.404255,0.404256 H 66.309492 c -0.21476,0 -0.404255,-0.189495 -0.404255,-0.404256 v -4.042553 c 0,-0.214761 0.189495,-0.404256 0.404255,-0.404256 h 15.361704 c 0.214761,0 0.404255,0.189495 0.404255,0.404256 z M 66.536886,49.3189 68.520264,43.229804 c 0.06316,-0.214761 0.303191,-0.37899 0.530585,-0.37899 h 9.87899 c 0.227394,0 0.467421,0.164229 0.530585,0.37899 l 1.983378,6.089096 z m 17.155587,2.021277 c 0,-0.341091 -0.101064,-0.631649 -0.202128,-0.947474 L 81.001648,42.737117 C 80.711089,41.852809 79.86468,41.233793 78.929839,41.233793 h -9.87899 c -0.93484,0 -1.78125,0.619016 -2.071809,1.503324 l -2.488697,7.655586 c -0.101064,0.315825 -0.202127,0.606383 -0.202127,0.947474 v 4.042553 c 0,1.111702 0.909574,2.021277 2.021276,2.021277 h 15.361704 c 1.111702,0 2.021277,-0.909575 2.021277,-2.021277 z" />
    </g>
    <g
       style="font-style:normal;font-variant:normal;font-weight:normal;font-stretch:normal;font-size:22.6383px;line-height:125%;font-family:FontAwesome;-inkscape-font-specification:FontAwesome;letter-spacing:0px;word-spacing:0px;fill:#0078b8;fill-opacity:1;stroke:none;stroke-width:1.06117px;stroke-linecap:butt;stroke-linejoin:miter;stroke-opacity:1"
       id="text19581-5"
       aria-label="">
      <path
         id="path65"
         style="fill:#0078b8;fill-opacity:1;stroke-width:1.06117px"
         d="m 105.68226,53.361453 c 0,-0.555851 -0.45479,-1.010638 -1.01064,-1.010638 -0.55585,0 -1.01064,0.454787 -1.01064,1.010638 0,0.555852 0.45479,1.010639 1.01064,1.010639 0.55585,0 1.01064,-0.454787 1.01064,-1.010639 z m 3.23404,0 c 0,-0.555851 -0.45478,-1.010638 -1.01064,-1.010638 -0.55585,0 -1.01063,0.454787 -1.01063,1.010638 0,0.555852 0.45478,1.010639 1.01063,1.010639 0.55586,0 1.01064,-0.454787 1.01064,-1.010639 z m 1.4149,2.021277 c 0,0.214761 -0.1895,0.404256 -0.40426,0.404256 H 94.565237 c -0.21476,0 -0.404255,-0.189495 -0.404255,-0.404256 v -4.042553 c 0,-0.214761 0.189495,-0.404256 0.404255,-0.404256 h 15.361703 c 0.21476,0 0.40426,0.189495 0.40426,0.404256 z M 94.792631,49.3189 96.776009,43.229804 c 0.06316,-0.214761 0.303191,-0.37899 0.530585,-0.37899 h 9.878986 c 0.2274,0 0.46742,0.164229 0.53059,0.37899 l 1.98338,6.089096 z m 17.155589,2.021277 c 0,-0.341091 -0.10107,-0.631649 -0.20213,-0.947474 l -2.4887,-7.655586 c -0.29056,-0.884308 -1.13697,-1.503324 -2.07181,-1.503324 h -9.878986 c -0.934841,0 -1.78125,0.619016 -2.071809,1.503324 l -2.488697,7.655586 c -0.101064,0.315825 -0.202127,0.606383 -0.202127,0.947474 v 4.042553 c 0,1.111702 0.909574,2.021277 2.021276,2.021277 h 15.361703 c 1.1117,0 2.02128,-0.909575 2.02128,-2.021277 z" />
    </g>
    <g
       style="font-style:normal;font-variant:normal;font-weight:normal;font-stretch:normal;font-size:16.2461px;line-height:125%;font-family:FontAwesome;-inkscape-font-specification:FontAwesome;letter-spacing:0px;word-spacing:0px;fill:#0078b8;fill-opacity:1;stroke:none;stroke-width:0.761538px;stroke-linecap:butt;stroke-linejoin:miter;stroke-opacity:1"
       id="text19603"
       aria-label="">
      <path
         id="path68"
         style="fill:#0078b8;fill-opacity:1;stroke-width:0.761538px"
         d="m 136.25272,45.511221 -3.69889,-3.698889 c -0.0907,-0.09066 -0.19945,-0.172252 -0.32637,-0.253845 v 4.279106 h 4.2791 c -0.0816,-0.126923 -0.16318,-0.235713 -0.25384,-0.326372 z m -4.31537,1.486808 c -0.4805,0 -0.87033,-0.389834 -0.87033,-0.870327 V 41.19585 h -7.25272 c -0.4805,0 -0.87033,0.389834 -0.87033,0.870327 v 14.505446 c 0,0.480493 0.38983,0.870327 0.87033,0.870327 h 12.18457 c 0.48049,0 0.87033,-0.389834 0.87033,-0.870327 v -9.573594 z m 1.45054,6.672505 c 0,0.163186 -0.12692,0.290109 -0.29011,0.290109 h -6.38239 c -0.16319,0 -0.29011,-0.126923 -0.29011,-0.290109 v -0.580218 c 0,-0.163186 0.12692,-0.290109 0.29011,-0.290109 h 6.38239 c 0.16319,0 0.29011,0.126923 0.29011,0.290109 z m 0,-2.320871 c 0,0.163186 -0.12692,0.290108 -0.29011,0.290108 h -6.38239 c -0.16319,0 -0.29011,-0.126922 -0.29011,-0.290108 v -0.580218 c 0,-0.163187 0.12692,-0.290109 0.29011,-0.290109 h 6.38239 c 0.16319,0 0.29011,0.126922 0.29011,0.290109 z m 0,-2.320872 c 0,0.163186 -0.12692,0.290109 -0.29011,0.290109 h -6.38239 c -0.16319,0 -0.29011,-0.126923 -0.29011,-0.290109 v -0.580218 c 0,-0.163186 0.12692,-0.290109 0.29011,-0.290109 h 6.38239 c 0.16319,0 0.29011,0.126923 0.29011,0.290109 z" />
    </g>
    <g
       style="font-style:normal;font-variant:normal;font-weight:normal;font-stretch:normal;font-size:5.64444px;line-height:125%;font-family:'Roboto Slab';-inkscape-font-specification:'Roboto Slab';letter-spacing:0px;word-spacing:0px;fill:#000000;fill-opacity:1;stroke:none;stroke-width:0.264583px;stroke-linecap:butt;stroke-linejoin:miter;stroke-opacity:1"
       id="text19607"
       aria-label="rootfs
image">
      <path
         id="path71"
         style="stroke-width:0.264583px"
         d="m 65.946751,28.581398 v 0.347265 h 1.441427 v -0.347265 l -0.44924,-0.07717 v -1.689474 c 0.104731,-0.248046 0.300412,-0.413411 0.587044,-0.396874 l 0.377582,0.02205 0.07166,-0.504361 c -0.05237,-0.01929 -0.190169,-0.0441 -0.303168,-0.0441 -0.319705,0 -0.570508,0.181901 -0.738628,0.487826 l -0.0055,-0.05237 -0.04685,-0.380338 h -0.934309 v 0.350021 l 0.44924,0.07717 v 2.130446 z" />
      <path
         id="path73"
         style="stroke-width:0.264583px"
         d="m 68.250829,27.410066 v 0.06063 c 0,0.8847 0.509874,1.515841 1.336696,1.515841 0.818554,0 1.331184,-0.625629 1.331184,-1.515841 v -0.06063 c 0,-0.8847 -0.51263,-1.518597 -1.336696,-1.518597 -0.818554,0 -1.331184,0.636654 -1.331184,1.518597 z m 0.542947,0.06063 v -0.06063 c 0,-0.625629 0.267339,-1.091405 0.788237,-1.091405 0.520898,0 0.79375,0.465776 0.79375,1.091405 v 0.06063 c 0,0.631141 -0.272852,1.091405 -0.788238,1.091405 -0.52641,0 -0.793749,-0.460264 -0.793749,-1.091405 z" />
      <path
         id="path75"
         style="stroke-width:0.264583px"
         d="m 71.40929,27.410066 v 0.06063 c 0,0.8847 0.509874,1.515841 1.336696,1.515841 0.818554,0 1.331184,-0.625629 1.331184,-1.515841 v -0.06063 c 0,-0.8847 -0.51263,-1.518597 -1.336696,-1.518597 -0.818554,0 -1.331184,0.636654 -1.331184,1.518597 z m 0.542947,0.06063 v -0.06063 c 0,-0.625629 0.267339,-1.091405 0.788237,-1.091405 0.520898,0 0.79375,0.465776 0.79375,1.091405 v 0.06063 c 0,0.631141 -0.272852,1.091405 -0.788238,1.091405 -0.52641,0 -0.793749,-0.460264 -0.793749,-1.091405 z" />
      <path
         id="path77"
         style="stroke-width:0.264583px"
         d="m 75.361501,25.227255 h -0.542946 v 0.719336 h -0.471289 v 0.402387 h 0.471289 v 1.810741 c 0,0.570507 0.278363,0.815798 0.719335,0.815798 0.198438,0 0.454752,-0.04134 0.611849,-0.09095 l -0.07441,-0.355534 c -0.0882,0.01929 -0.272852,0.04961 -0.399631,0.04961 -0.192925,0 -0.314193,-0.132292 -0.314193,-0.418923 v -1.810741 h 0.647678 v -0.402387 h -0.647678 z" />
      <path
         id="path79"
         style="stroke-width:0.264583px"
         d="m 76.48598,28.581398 v 0.347265 h 1.504816 v -0.347265 l -0.512629,-0.07717 v -2.15525 H 78.1286 v -0.402387 h -0.650433 v -0.377582 c 0,-0.361046 0.151584,-0.553971 0.471288,-0.553971 0.09922,0 0.225998,0.01378 0.292144,0.02756 l 0.06615,-0.413411 c -0.15434,-0.03583 -0.303168,-0.05788 -0.427192,-0.05788 -0.595312,0 -0.945333,0.361046 -0.945333,0.997699 v 0.377582 h -0.465777 v 0.402387 h 0.465777 v 2.15525 z" />
      <path
         id="path81"
         style="stroke-width:0.264583px"
         d="m 80.744114,26.856095 -0.02756,-0.68075 c -0.239779,-0.173633 -0.548459,-0.283876 -1.000455,-0.283876 -0.66697,0 -1.11621,0.369314 -1.11621,0.851627 0,0.463021 0.327972,0.722092 1.050064,0.887456 0.507118,0.115755 0.669726,0.272852 0.669726,0.507118 0,0.250803 -0.176389,0.440972 -0.617361,0.440972 -0.223242,0 -0.405143,-0.03583 -0.611848,-0.121267 L 78.988495,28.030183 H 78.57784 l 0.0055,0.708311 c 0.394119,0.170877 0.719336,0.248047 1.118966,0.248047 0.802018,0 1.160308,-0.383095 1.160308,-0.887456 0,-0.440972 -0.286632,-0.733116 -1.116211,-0.928797 -0.501605,-0.118511 -0.600824,-0.234266 -0.600824,-0.443728 0,-0.239779 0.231511,-0.416167 0.570508,-0.416167 0.225998,0 0.402387,0.05512 0.531922,0.148828 l 0.08819,0.396874 z" />
      <path
         id="path83"
         style="stroke-width:0.264583px"
         d="M 66.925158,32.266269 V 31.684738 H 66.35465 v 0.581531 z m -0.992187,3.370679 v 0.347265 h 1.441427 v -0.347265 l -0.44924,-0.07717 v -2.557637 h -0.992187 v 0.350022 l 0.44924,0.07717 v 2.130445 z" />
      <path
         id="path85"
         style="stroke-width:0.264583px"
         d="m 67.749224,33.352163 0.44924,0.07717 v 2.130445 l -0.44924,0.07717 v 0.347265 h 1.441427 v -0.347265 l -0.44924,-0.07717 v -1.78318 c 0.112999,-0.245291 0.32246,-0.388607 0.653189,-0.388607 0.394119,0 0.606337,0.248047 0.606337,0.80753 v 1.364257 l -0.449241,0.07717 v 0.347265 h 1.441427 v -0.347265 l -0.44924,-0.07717 V 34.09079 c 0.03583,-0.405142 0.278364,-0.702799 0.655946,-0.702799 0.396875,0 0.600824,0.220486 0.600824,0.80753 v 1.364257 l -0.44924,0.07717 v 0.347265 h 1.444183 v -0.347265 l -0.44924,-0.07717 v -1.358745 c 0,-0.837846 -0.377582,-1.254013 -0.986675,-1.254013 -0.410655,0 -0.724847,0.212217 -0.91226,0.551214 -0.143316,-0.366557 -0.43546,-0.551214 -0.832335,-0.551214 -0.396875,0 -0.702799,0.159852 -0.892968,0.443728 l -0.03583,-0.388607 h -0.937065 z" />
      <path
         id="path87"
         style="stroke-width:0.264583px"
         d="m 75.116211,35.984213 h 0.779969 v -0.347265 l -0.289388,-0.03032 c -0.0083,-0.07441 -0.0083,-0.146072 -0.0083,-0.223242 v -1.435914 c 0,-0.642166 -0.43546,-1.000455 -1.160308,-1.000455 -0.432703,0 -0.793749,0.112999 -1.061088,0.330729 v 0.683506 h 0.418923 l 0.05788,-0.416167 c 0.148828,-0.107487 0.325216,-0.170877 0.576019,-0.170877 0.396875,0 0.625629,0.206706 0.625629,0.567751 v 0.292144 h -0.531922 c -0.824067,0 -1.311892,0.374826 -1.311892,0.939822 0,0.551214 0.330729,0.868163 0.950846,0.868163 0.355533,0 0.686262,-0.201193 0.895724,-0.468533 0.0083,0.129536 0.02481,0.248047 0.05788,0.410655 z m -0.873676,-0.396874 c -0.327973,0 -0.487825,-0.14056 -0.487825,-0.402387 0,-0.2949 0.250803,-0.578776 0.749652,-0.578776 h 0.551215 v 0.540191 c -0.129536,0.242534 -0.451996,0.440972 -0.813042,0.440972 z" />
      <path
         id="path89"
         style="stroke-width:0.264583px"
         d="m 76.317859,34.548299 v 0.05788 c 0,0.857139 0.446484,1.435915 1.176844,1.435915 0.352777,0 0.622873,-0.129535 0.818554,-0.380338 v 0.283875 c 0,0.504362 -0.21773,0.785482 -0.702799,0.785482 -0.261827,0 -0.559483,-0.07717 -0.760676,-0.184657 l -0.14056,0.421679 c 0.253559,0.135048 0.620116,0.220486 0.906748,0.220486 0.79375,0 1.240234,-0.471289 1.240234,-1.24299 v -2.516295 l 0.369314,-0.07993 v -0.347265 h -0.826823 l -0.04961,0.374826 c -0.190169,-0.278363 -0.474045,-0.429947 -0.848871,-0.429947 -0.738628,0 -1.182356,0.642165 -1.182356,1.601279 z m 0.542947,0.05788 v -0.05788 c 0,-0.680751 0.256315,-1.160308 0.774457,-1.160308 0.316948,0 0.537434,0.159853 0.677994,0.413412 v 1.372525 c -0.143316,0.272851 -0.355534,0.427191 -0.683506,0.427191 -0.518142,0 -0.768945,-0.396875 -0.768945,-0.994943 z" />
      <path
         id="path91"
         style="stroke-width:0.264583px"
         d="m 80.854357,36.042091 c 0.493338,0 0.843359,-0.159852 1.055577,-0.366558 l -0.212218,-0.352777 c -0.201193,0.184657 -0.476801,0.2949 -0.843359,0.2949 -0.504361,0 -0.793749,-0.410655 -0.804773,-0.983919 l 0.0083,-0.01378 h 1.934764 V 34.28096 c 0,-0.80753 -0.418923,-1.33394 -1.220941,-1.33394 -0.691775,0 -1.276062,0.633897 -1.276062,1.482768 v 0.121267 c 0,0.881944 0.529166,1.491036 1.358744,1.491036 z m -0.08268,-2.66788 c 0.44924,0 0.677994,0.322461 0.677994,0.749652 v 0.07166 h -1.375281 l -0.0055,-0.01378 c 0.05788,-0.463021 0.338997,-0.80753 0.702799,-0.80753 z" />
    </g>
    <g
       style="font-style:normal;font-variant:normal;font-weight:normal;font-stretch:normal;font-size:5.64444px;line-height:125%;font-family:'Roboto Slab';-inkscape-font-specification:'Roboto Slab';letter-spacing:0px;word-spacing:0px;fill:#000000;fill-opacity:1;stroke:none;stroke-width:0.264583px;stroke-linecap:butt;stroke-linejoin:miter;stroke-opacity:1"
       id="text19613"
       aria-label="appfs
image">
      <path
         id="path94"
         style="stroke-width:0.264583px"
         d="m 96.126236,28.928663 h 0.779969 v -0.347265 l -0.289388,-0.03032 c -0.0083,-0.07441 -0.0083,-0.146072 -0.0083,-0.223242 v -1.435915 c 0,-0.642165 -0.43546,-1.000455 -1.160307,-1.000455 -0.432704,0 -0.79375,0.112999 -1.061089,0.330729 v 0.683507 h 0.418923 l 0.05788,-0.416168 c 0.148828,-0.107486 0.325217,-0.170876 0.57602,-0.170876 0.396874,0 0.625628,0.206705 0.625628,0.567751 v 0.292144 H 95.53368 c -0.824066,0 -1.311891,0.374826 -1.311891,0.939821 0,0.551215 0.330729,0.868164 0.950845,0.868164 0.355534,0 0.686263,-0.201194 0.895724,-0.468533 0.0083,0.129536 0.02481,0.248047 0.05788,0.410655 z M 95.25256,28.531789 c -0.327972,0 -0.487825,-0.14056 -0.487825,-0.402387 0,-0.2949 0.250803,-0.578776 0.749653,-0.578776 h 0.551214 v 0.540191 c -0.129535,0.242534 -0.451996,0.440972 -0.813042,0.440972 z" />
      <path
         id="path96"
         style="stroke-width:0.264583px"
         d="m 97.217642,26.296612 0.44924,0.07717 v 3.274217 l -0.42168,0.07717 v 0.350021 h 1.438671 v -0.350021 l -0.474045,-0.07717 v -1.028016 c 0.195682,0.242534 0.471289,0.366558 0.837847,0.366558 0.724847,0 1.160305,-0.57602 1.160305,-1.435915 v -0.05788 c 0,-0.96187 -0.429945,-1.60128 -1.168573,-1.60128 -0.374826,0 -0.658702,0.146072 -0.857139,0.418924 l -0.04961,-0.363802 h -0.915016 z m 2.444637,1.196137 v 0.05788 c 0,0.598068 -0.267339,1.011479 -0.782725,1.011479 -0.319704,0 -0.534678,-0.140559 -0.669726,-0.38585 v -1.452451 c 0.135048,-0.242535 0.355534,-0.391363 0.664214,-0.391363 0.520898,0 0.788237,0.479557 0.788237,1.160308 z" />
      <path
         id="path98"
         style="stroke-width:0.264583px"
         d="m 100.50564,26.296612 0.44924,0.07717 v 3.274217 l -0.42168,0.07717 v 0.350021 h 1.43867 v -0.350021 l -0.47405,-0.07717 v -1.028016 c 0.19569,0.242534 0.47129,0.366558 0.83785,0.366558 0.72485,0 1.16031,-0.57602 1.16031,-1.435915 v -0.05788 c 0,-0.96187 -0.42995,-1.60128 -1.16858,-1.60128 -0.37482,0 -0.6587,0.146072 -0.85714,0.418924 l -0.0496,-0.363802 h -0.91501 z m 2.44464,1.196137 v 0.05788 c 0,0.598068 -0.26734,1.011479 -0.78273,1.011479 -0.3197,0 -0.53468,-0.140559 -0.66973,-0.38585 v -1.452451 c 0.13505,-0.242535 0.35554,-0.391363 0.66422,-0.391363 0.5209,0 0.78824,0.479557 0.78824,1.160308 z" />
      <path
         id="path100"
         style="stroke-width:0.264583px"
         d="m 103.89285,28.581398 v 0.347265 h 1.50482 v -0.347265 l -0.51263,-0.07717 v -2.15525 h 0.65043 v -0.402387 h -0.65043 v -0.377582 c 0,-0.361046 0.15158,-0.553971 0.47129,-0.553971 0.0992,0 0.226,0.01378 0.29214,0.02756 l 0.0661,-0.413411 c -0.15434,-0.03583 -0.30317,-0.05788 -0.42719,-0.05788 -0.59531,0 -0.94534,0.361046 -0.94534,0.997699 v 0.377582 h -0.46577 v 0.402387 h 0.46577 v 2.15525 z" />
      <path
         id="path102"
         style="stroke-width:0.264583px"
         d="m 108.15099,26.856095 -0.0276,-0.68075 c -0.23978,-0.173633 -0.54846,-0.283876 -1.00046,-0.283876 -0.66697,0 -1.11621,0.369314 -1.11621,0.851627 0,0.463021 0.32798,0.722092 1.05007,0.887456 0.50711,0.115755 0.66972,0.272852 0.66972,0.507118 0,0.250803 -0.17639,0.440972 -0.61736,0.440972 -0.22324,0 -0.40514,-0.03583 -0.61185,-0.121267 l -0.10197,-0.427192 h -0.41066 l 0.006,0.708311 c 0.39411,0.170877 0.71933,0.248047 1.11896,0.248047 0.80202,0 1.16031,-0.383095 1.16031,-0.887456 0,-0.440972 -0.28663,-0.733116 -1.11621,-0.928797 -0.50161,-0.118511 -0.60082,-0.234266 -0.60082,-0.443728 0,-0.239779 0.23151,-0.416167 0.5705,-0.416167 0.226,0 0.40239,0.05512 0.53192,0.148828 l 0.0882,0.396874 z" />
      <path
         id="path104"
         style="stroke-width:0.264583px"
         d="m 95.180903,32.266269 v -0.581531 h -0.570508 v 0.581531 z m -0.992187,3.370679 v 0.347265 h 1.441427 v -0.347265 l -0.44924,-0.07717 v -2.557637 h -0.992187 v 0.350022 l 0.44924,0.07717 v 2.130445 z" />
      <path
         id="path106"
         style="stroke-width:0.264583px"
         d="m 96.004969,33.352163 0.44924,0.07717 v 2.130445 l -0.44924,0.07717 v 0.347265 h 1.441427 v -0.347265 l -0.44924,-0.07717 v -1.78318 c 0.112999,-0.245291 0.32246,-0.388607 0.653189,-0.388607 0.394119,0 0.606337,0.248047 0.606337,0.80753 v 1.364257 l -0.449241,0.07717 v 0.347265 h 1.441427 v -0.347265 l -0.44924,-0.07717 V 34.09079 c 0.03583,-0.405142 0.278364,-0.702799 0.655946,-0.702799 0.396875,0 0.600826,0.220486 0.600826,0.80753 v 1.364257 l -0.449242,0.07717 v 0.347265 h 1.444182 v -0.347265 l -0.44924,-0.07717 v -1.358745 c 0,-0.837846 -0.37758,-1.254013 -0.986674,-1.254013 -0.410655,0 -0.724847,0.212217 -0.91226,0.551214 -0.143316,-0.366557 -0.43546,-0.551214 -0.832335,-0.551214 -0.396875,0 -0.702799,0.159852 -0.892968,0.443728 l -0.03583,-0.388607 h -0.937065 z" />
      <path
         id="path108"
         style="stroke-width:0.264583px"
         d="m 103.37196,35.984213 h 0.77996 v -0.347265 l -0.28938,-0.03032 c -0.008,-0.07441 -0.008,-0.146072 -0.008,-0.223242 v -1.435914 c 0,-0.642166 -0.43546,-1.000455 -1.16031,-1.000455 -0.4327,0 -0.79375,0.112999 -1.06109,0.330729 v 0.683506 h 0.41893 l 0.0579,-0.416167 c 0.14883,-0.107487 0.32522,-0.170877 0.57602,-0.170877 0.39688,0 0.62563,0.206706 0.62563,0.567751 v 0.292144 h -0.53192 c -0.82407,0 -1.31189,0.374826 -1.31189,0.939822 0,0.551214 0.33073,0.868163 0.95084,0.868163 0.35554,0 0.68627,-0.201193 0.89573,-0.468533 0.008,0.129536 0.0248,0.248047 0.0579,0.410655 z m -0.87368,-0.396874 c -0.32797,0 -0.48783,-0.14056 -0.48783,-0.402387 0,-0.2949 0.25081,-0.578776 0.74966,-0.578776 h 0.55121 v 0.540191 c -0.12953,0.242534 -0.45199,0.440972 -0.81304,0.440972 z" />
      <path
         id="path110"
         style="stroke-width:0.264583px"
         d="m 104.5736,34.548299 v 0.05788 c 0,0.857139 0.44649,1.435915 1.17685,1.435915 0.35278,0 0.62287,-0.129535 0.81855,-0.380338 v 0.283875 c 0,0.504362 -0.21773,0.785482 -0.7028,0.785482 -0.26182,0 -0.55948,-0.07717 -0.76067,-0.184657 l -0.14056,0.421679 c 0.25356,0.135048 0.62011,0.220486 0.90675,0.220486 0.79374,0 1.24023,-0.471289 1.24023,-1.24299 v -2.516295 l 0.36931,-0.07993 v -0.347265 h -0.82682 l -0.0496,0.374826 c -0.19017,-0.278363 -0.47404,-0.429947 -0.84887,-0.429947 -0.73863,0 -1.18236,0.642165 -1.18236,1.601279 z m 0.54295,0.05788 v -0.05788 c 0,-0.680751 0.25632,-1.160308 0.77446,-1.160308 0.31695,0 0.53743,0.159853 0.67799,0.413412 v 1.372525 c -0.14331,0.272851 -0.35553,0.427191 -0.6835,0.427191 -0.51815,0 -0.76895,-0.396875 -0.76895,-0.994943 z" />
      <path
         id="path112"
         style="stroke-width:0.264583px"
         d="m 109.1101,36.042091 c 0.49334,0 0.84336,-0.159852 1.05558,-0.366558 l -0.21222,-0.352777 c -0.20119,0.184657 -0.4768,0.2949 -0.84336,0.2949 -0.50436,0 -0.79375,-0.410655 -0.80477,-0.983919 l 0.008,-0.01378 h 1.93476 V 34.28096 c 0,-0.80753 -0.41892,-1.33394 -1.22094,-1.33394 -0.69177,0 -1.27606,0.633897 -1.27606,1.482768 v 0.121267 c 0,0.881944 0.52916,1.491036 1.35874,1.491036 z m -0.0827,-2.66788 c 0.44924,0 0.67799,0.322461 0.67799,0.749652 v 0.07166 h -1.37528 l -0.006,-0.01378 c 0.0579,-0.463021 0.339,-0.80753 0.7028,-0.80753 z" />
    </g>
    <path
       d="M 52.834076,18.434227 H 152.52837 V 93.792618 H 52.834076 Z"
       style="opacity:1;vector-effect:none;fill:none;fill-opacity:1;stroke:#b80078;stroke-width:1;stroke-linecap:butt;stroke-linejoin:round;stroke-miterlimit:4;stroke-dasharray:none;stroke-dashoffset:0;stroke-opacity:1;paint-order:stroke markers fill"
       id="rect19661" />
    <g
       style="font-style:normal;font-variant:normal;font-weight:normal;font-stretch:normal;font-size:5.64444px;line-height:125%;font-family:'Roboto Slab';-inkscape-font-specification:'Roboto Slab';letter-spacing:0px;word-spacing:0px;fill:#000000;fill-opacity:1;stroke:none;stroke-width:0.264583px;stroke-linecap:butt;stroke-linejoin:miter;stroke-opacity:1"
       id="text19613-5"
       aria-label="hooks
script">
      <path
         id="path116"
         style="stroke-width:0.264583px"
         d="m 121.98426,28.581398 v 0.347265 h 1.44143 v -0.347265 l -0.44924,-0.07717 V 26.72656 c 0.15709,-0.242535 0.41065,-0.394119 0.70831,-0.394119 0.41892,0 0.63114,0.228754 0.63114,0.722092 v 1.449695 l -0.44924,0.07717 v 0.347265 h 1.44143 v -0.347265 l -0.44924,-0.07717 v -1.444183 c 0,-0.79375 -0.36932,-1.168576 -1.00873,-1.168576 -0.3638,0 -0.66697,0.165365 -0.87367,0.451997 v -1.714279 h -0.99219 v 0.350022 l 0.44924,0.07717 v 3.447849 z" />
      <path
         id="path118"
         style="stroke-width:0.264583px"
         d="m 125.63606,27.410066 v 0.06063 c 0,0.8847 0.50987,1.515841 1.33669,1.515841 0.81856,0 1.33119,-0.625629 1.33119,-1.515841 v -0.06063 c 0,-0.8847 -0.51263,-1.518597 -1.3367,-1.518597 -0.81855,0 -1.33118,0.636654 -1.33118,1.518597 z m 0.54295,0.06063 v -0.06063 c 0,-0.625629 0.26733,-1.091405 0.78823,-1.091405 0.5209,0 0.79375,0.465776 0.79375,1.091405 v 0.06063 c 0,0.631141 -0.27285,1.091405 -0.78824,1.091405 -0.52641,0 -0.79374,-0.460264 -0.79374,-1.091405 z" />
      <path
         id="path120"
         style="stroke-width:0.264583px"
         d="m 128.79452,27.410066 v 0.06063 c 0,0.8847 0.50987,1.515841 1.3367,1.515841 0.81855,0 1.33118,-0.625629 1.33118,-1.515841 v -0.06063 c 0,-0.8847 -0.51263,-1.518597 -1.3367,-1.518597 -0.81855,0 -1.33118,0.636654 -1.33118,1.518597 z m 0.54295,0.06063 v -0.06063 c 0,-0.625629 0.26734,-1.091405 0.78823,-1.091405 0.5209,0 0.79375,0.465776 0.79375,1.091405 v 0.06063 c 0,0.631141 -0.27285,1.091405 -0.78823,1.091405 -0.52641,0 -0.79375,-0.460264 -0.79375,-1.091405 z" />
      <path
         id="path122"
         style="stroke-width:0.264583px"
         d="m 131.78762,24.979209 0.44924,0.07717 v 3.447849 l -0.44924,0.07717 v 0.347265 h 1.44142 v -0.347265 l -0.44924,-0.07717 v -0.950846 h 0.35829 l 0.8599,0.981163 0.008,0.01102 -0.30317,0.03583 v 0.347265 h 1.34772 v -0.347265 l -0.42995,-0.06615 -1.03628,-1.198892 0.84611,-0.94809 0.3831,-0.07166 v -0.350021 h -1.2678 v 0.350021 l 0.31971,0.03583 -0.0138,0.01654 -0.72485,0.771701 h -0.34727 v -2.491492 h -0.99218 z" />
      <path
         id="path124"
         style="stroke-width:0.264583px"
         d="m 137.6112,26.856095 -0.0276,-0.68075 c -0.23978,-0.173633 -0.54846,-0.283876 -1.00045,-0.283876 -0.66697,0 -1.11621,0.369314 -1.11621,0.851627 0,0.463021 0.32797,0.722092 1.05006,0.887456 0.50712,0.115755 0.66973,0.272852 0.66973,0.507118 0,0.250803 -0.17639,0.440972 -0.61736,0.440972 -0.22325,0 -0.40515,-0.03583 -0.61185,-0.121267 l -0.10198,-0.427192 h -0.41065 l 0.006,0.708311 c 0.39412,0.170877 0.71933,0.248047 1.11897,0.248047 0.80201,0 1.1603,-0.383095 1.1603,-0.887456 0,-0.440972 -0.28663,-0.733116 -1.11621,-0.928797 -0.5016,-0.118511 -0.60082,-0.234266 -0.60082,-0.443728 0,-0.239779 0.23151,-0.416167 0.57051,-0.416167 0.22599,0 0.40238,0.05512 0.53192,0.148828 l 0.0882,0.396874 z" />
      <path
         id="path126"
         style="stroke-width:0.264583px"
         d="m 124.30212,33.911646 -0.0276,-0.680751 c -0.23978,-0.173632 -0.54846,-0.283875 -1.00046,-0.283875 -0.66697,0 -1.11621,0.369314 -1.11621,0.851627 0,0.46302 0.32798,0.722091 1.05007,0.887455 0.50711,0.115756 0.66972,0.272852 0.66972,0.507118 0,0.250803 -0.17639,0.440972 -0.61736,0.440972 -0.22324,0 -0.40514,-0.03583 -0.61185,-0.121267 l -0.10197,-0.427192 h -0.41066 l 0.006,0.708311 c 0.39412,0.170877 0.71933,0.248047 1.11896,0.248047 0.80202,0 1.16031,-0.383094 1.16031,-0.887456 0,-0.440972 -0.28663,-0.733116 -1.11621,-0.928797 -0.50161,-0.118511 -0.60082,-0.234266 -0.60082,-0.443728 0,-0.239778 0.23151,-0.416167 0.5705,-0.416167 0.226,0 0.40239,0.05512 0.53193,0.148828 l 0.0882,0.396875 z" />
      <path
         id="path128"
         style="stroke-width:0.264583px"
         d="m 126.20381,35.617656 c -0.49058,0 -0.79099,-0.413412 -0.79099,-1.066601 V 34.4353 c 0,-0.587044 0.32797,-1.061089 0.81304,-1.061089 0.25356,0 0.44097,0.08268 0.56499,0.212218 l 0.0937,0.520898 h 0.42444 l -0.0138,-0.716579 c -0.2453,-0.275608 -0.60634,-0.443728 -1.08865,-0.443728 -0.83509,0 -1.3367,0.639409 -1.3367,1.48828 v 0.115755 c 0,0.8847 0.52365,1.491036 1.3367,1.491036 0.74414,0 1.14101,-0.460264 1.17133,-0.97565 l -0.006,-0.01654 h -0.48783 c -0.0551,0.352778 -0.31419,0.567752 -0.68075,0.567752 z" />
      <path
         id="path130"
         style="stroke-width:0.264583px"
         d="m 127.79407,35.636948 v 0.347265 h 1.44142 v -0.347265 l -0.44924,-0.07717 v -1.689474 c 0.10473,-0.248046 0.30041,-0.413411 0.58705,-0.396874 l 0.37758,0.02205 0.0717,-0.504361 c -0.0524,-0.01929 -0.19017,-0.0441 -0.30317,-0.0441 -0.31971,0 -0.57051,0.1819 -0.73863,0.487825 l -0.006,-0.05237 -0.0469,-0.380338 h -0.9343 v 0.350022 l 0.44924,0.07717 v 2.130445 z" />
      <path
         id="path132"
         style="stroke-width:0.264583px"
         d="m 131.12616,32.266269 v -0.581531 h -0.57051 v 0.581531 z m -0.99219,3.370679 v 0.347265 h 1.44143 v -0.347265 l -0.44924,-0.07717 v -2.557637 h -0.99219 v 0.350022 l 0.44924,0.07717 v 2.130445 z" />
      <path
         id="path134"
         style="stroke-width:0.264583px"
         d="m 131.83998,33.352163 0.44924,0.07717 v 3.274216 l -0.42168,0.07717 v 0.350021 h 1.43867 v -0.350021 l -0.47404,-0.07717 v -1.028016 c 0.19568,0.242535 0.47129,0.366558 0.83785,0.366558 0.72484,0 1.1603,-0.576019 1.1603,-1.435915 v -0.05788 c 0,-0.96187 -0.42994,-1.601279 -1.16857,-1.601279 -0.37483,0 -0.6587,0.146072 -0.85714,0.418923 l -0.0496,-0.363802 h -0.91502 z m 2.44464,1.196136 v 0.05788 c 0,0.598068 -0.26734,1.01148 -0.78272,1.01148 -0.31971,0 -0.53468,-0.14056 -0.66973,-0.385851 v -1.452451 c 0.13505,-0.242535 0.35553,-0.391363 0.66421,-0.391363 0.5209,0 0.78824,0.479557 0.78824,1.160308 z" />
      <path
         id="path136"
         style="stroke-width:0.264583px"
         d="m 136.11465,32.282806 h -0.54294 v 0.719335 h -0.47129 v 0.402387 h 0.47129 v 1.810741 c 0,0.570507 0.27836,0.815798 0.71933,0.815798 0.19844,0 0.45475,-0.04134 0.61185,-0.09095 l -0.0744,-0.355533 c -0.0882,0.01929 -0.27285,0.04961 -0.39963,0.04961 -0.19293,0 -0.3142,-0.132292 -0.3142,-0.418923 v -1.810741 h 0.64768 v -0.402387 h -0.64768 z" />
    </g>
    <g
       style="font-style:normal;font-variant:normal;font-weight:normal;font-stretch:normal;font-size:16.2461px;line-height:125%;font-family:FontAwesome;-inkscape-font-specification:FontAwesome;letter-spacing:0px;word-spacing:0px;fill:#78b800;fill-opacity:1;stroke:none;stroke-width:0.761538px;stroke-linecap:butt;stroke-linejoin:miter;stroke-opacity:1"
       id="text19603-4"
       aria-label="">
      <path
         id="path139"
         style="fill:#78b800;fill-opacity:1;stroke-width:0.761538px"
         d="m 108.59222,70.278799 -3.69889,-3.698889 c -0.0907,-0.09066 -0.19945,-0.172252 -0.32637,-0.253845 v 4.279106 h 4.2791 c -0.0816,-0.126922 -0.16318,-0.235713 -0.25384,-0.326372 z m -4.31537,1.486808 c -0.4805,0 -0.87033,-0.389834 -0.87033,-0.870327 v -4.931852 h -7.252723 c -0.480493,0 -0.870327,0.389834 -0.870327,0.870327 v 14.505446 c 0,0.480493 0.389834,0.870327 0.870327,0.870327 h 12.184573 c 0.48049,0 0.87033,-0.389834 0.87033,-0.870327 v -9.573594 z m 1.45054,6.672505 c 0,0.163186 -0.12692,0.290109 -0.29011,0.290109 h -6.382394 c -0.163186,0 -0.290109,-0.126923 -0.290109,-0.290109 v -0.580218 c 0,-0.163186 0.126923,-0.290109 0.290109,-0.290109 h 6.382394 c 0.16319,0 0.29011,0.126923 0.29011,0.290109 z m 0,-2.320871 c 0,0.163186 -0.12692,0.290109 -0.29011,0.290109 h -6.382394 c -0.163186,0 -0.290109,-0.126923 -0.290109,-0.290109 v -0.580218 c 0,-0.163186 0.126923,-0.290109 0.290109,-0.290109 h 6.382394 c 0.16319,0 0.29011,0.126923 0.29011,0.290109 z m 0,-2.320872 c 0,0.163187 -0.12692,0.290109 -0.29011,0.290109 h -6.382394 c -0.163186,0 -0.290109,-0.126922 -0.290109,-0.290109 v -0.580218 c 0,-0.163186 0.126923,-0.290108 0.290109,-0.290108 h 6.382394 c 0.16319,0 0.29011,0.126922 0.29011,0.290108 z" />
    </g>
    <g
       style="font-style:normal;font-variant:normal;font-weight:normal;font-stretch:normal;font-size:5.64444px;line-height:125%;font-family:'Roboto Slab';-inkscape-font-specification:'Roboto Slab';letter-spacing:0px;word-spacing:0px;fill:#000000;fill-opacity:1;stroke:none;stroke-width:0.264583px;stroke-linecap:butt;stroke-linejoin:miter;stroke-opacity:1"
       id="text19683"
       aria-label="manifest">
      <path
         id="path142"
         style="stroke-width:0.264583px"
         d="m 90.541047,87.490592 0.44924,0.07717 v 2.130445 l -0.44924,0.07717 v 0.347266 h 1.441427 v -0.347266 l -0.449241,-0.07717 v -1.78318 c 0.112999,-0.245291 0.322461,-0.388606 0.65319,-0.388606 0.394119,0 0.606336,0.248046 0.606336,0.807529 v 1.364257 l -0.44924,0.07717 v 0.347266 h 1.441427 v -0.347266 l -0.44924,-0.07717 v -1.468988 c 0.03583,-0.405142 0.278364,-0.702798 0.655946,-0.702798 0.396874,0 0.600824,0.220485 0.600824,0.807529 v 1.364257 l -0.44924,0.07717 v 0.347266 h 1.444183 v -0.347266 l -0.44924,-0.07717 v -1.358745 c 0,-0.837846 -0.377583,-1.254013 -0.986675,-1.254013 -0.410655,0 -0.724848,0.212217 -0.912261,0.551214 -0.143315,-0.366557 -0.435459,-0.551214 -0.832334,-0.551214 -0.396875,0 -0.702799,0.159852 -0.892968,0.443728 l -0.03583,-0.388607 h -0.937065 z" />
      <path
         id="path144"
         style="stroke-width:0.264583px"
         d="m 97.908033,90.122643 h 0.779969 v -0.347266 l -0.289387,-0.03032 c -0.0083,-0.07441 -0.0083,-0.146072 -0.0083,-0.223242 v -1.435914 c 0,-0.642166 -0.435459,-1.000455 -1.160307,-1.000455 -0.432703,0 -0.793749,0.112999 -1.061088,0.330729 v 0.683506 h 0.418923 l 0.05788,-0.416167 c 0.148828,-0.107487 0.325217,-0.170877 0.57602,-0.170877 0.396875,0 0.625629,0.206706 0.625629,0.567751 v 0.292144 h -0.531923 c -0.824066,0 -1.311891,0.374826 -1.311891,0.939822 0,0.551215 0.330729,0.868163 0.950846,0.868163 0.355533,0 0.686262,-0.201193 0.895724,-0.468533 0.0083,0.129536 0.02481,0.248047 0.05788,0.410656 z m -0.873675,-0.396875 c -0.327973,0 -0.487825,-0.14056 -0.487825,-0.402387 0,-0.2949 0.250803,-0.578776 0.749652,-0.578776 H 97.8474 v 0.540191 c -0.129536,0.242534 -0.451996,0.440972 -0.813042,0.440972 z" />
      <path
         id="path146"
         style="stroke-width:0.264583px"
         d="m 99.109682,89.775377 v 0.347266 h 1.441428 v -0.347266 l -0.44924,-0.07717 V 87.9481 c 0.14331,-0.261827 0.39136,-0.421679 0.7028,-0.421679 0.42719,0 0.63114,0.198437 0.63114,0.724847 v 1.446939 l -0.44924,0.07717 v 0.347266 h 1.44143 v -0.347266 l -0.44924,-0.07717 v -1.457963 c 0,-0.785481 -0.36932,-1.154795 -1.01148,-1.154795 -0.3831,0 -0.68627,0.181901 -0.8847,0.498849 l -0.0386,-0.443728 h -0.934308 v 0.350022 l 0.44924,0.07717 v 2.130445 z" />
      <path
         id="path148"
         style="stroke-width:0.264583px"
         d="m 103.80328,86.404698 v -0.581531 h -0.57051 v 0.581531 z m -0.99219,3.370679 v 0.347266 h 1.44143 v -0.347266 l -0.44924,-0.07717 V 87.14057 h -0.99219 v 0.350022 l 0.44924,0.07717 v 2.130445 z" />
      <path
         id="path150"
         style="stroke-width:0.264583px"
         d="m 104.61632,89.775377 v 0.347266 h 1.50482 v -0.347266 l -0.51263,-0.07717 v -2.15525 h 0.65043 V 87.14057 h -0.65043 v -0.377582 c 0,-0.361046 0.15158,-0.553971 0.47128,-0.553971 0.0992,0 0.226,0.01378 0.29215,0.02756 l 0.0661,-0.413411 c -0.15434,-0.03583 -0.30316,-0.05788 -0.42719,-0.05788 -0.59531,0 -0.94533,0.361046 -0.94533,0.997699 v 0.377582 h -0.46578 v 0.402387 h 0.46578 v 2.15525 z" />
      <path
         id="path152"
         style="stroke-width:0.264583px"
         d="m 107.9181,90.18052 c 0.49333,0 0.84335,-0.159852 1.05557,-0.366558 l -0.21222,-0.352777 c -0.20119,0.184657 -0.4768,0.2949 -0.84335,0.2949 -0.50437,0 -0.79375,-0.410655 -0.80478,-0.983919 l 0.008,-0.01378 h 1.93476 v -0.338997 c 0,-0.80753 -0.41892,-1.33394 -1.22094,-1.33394 -0.69177,0 -1.27606,0.633897 -1.27606,1.482768 v 0.121267 c 0,0.881944 0.52917,1.491036 1.35875,1.491036 z m -0.0827,-2.66788 c 0.44924,0 0.678,0.322461 0.678,0.749652 v 0.07166 h -1.37528 l -0.006,-0.01378 c 0.0579,-0.463021 0.339,-0.80753 0.7028,-0.80753 z" />
      <path
         id="path154"
         style="stroke-width:0.264583px"
         d="m 111.74077,88.050075 -0.0276,-0.680751 c -0.23978,-0.173632 -0.54846,-0.283875 -1.00045,-0.283875 -0.66697,0 -1.11621,0.369314 -1.11621,0.851627 0,0.46302 0.32797,0.722091 1.05006,0.887456 0.50712,0.115755 0.66973,0.272851 0.66973,0.507117 0,0.250803 -0.17639,0.440972 -0.61737,0.440972 -0.22324,0 -0.40514,-0.03583 -0.61184,-0.121267 l -0.10198,-0.427192 h -0.41065 l 0.006,0.708311 c 0.39412,0.170877 0.71933,0.248047 1.11896,0.248047 0.80202,0 1.16031,-0.383094 1.16031,-0.887456 0,-0.440972 -0.28663,-0.733116 -1.11621,-0.928797 -0.5016,-0.118511 -0.60082,-0.234266 -0.60082,-0.443728 0,-0.239778 0.23151,-0.416167 0.57051,-0.416167 0.22599,0 0.40238,0.05512 0.53192,0.148828 l 0.0882,0.396875 z" />
      <path
         id="path156"
         style="stroke-width:0.264583px"
         d="m 113.18495,86.421235 h -0.54294 v 0.719335 h -0.47129 v 0.402387 h 0.47129 v 1.810741 c 0,0.570507 0.27836,0.815798 0.71933,0.815798 0.19844,0 0.45475,-0.04134 0.61185,-0.09095 l -0.0744,-0.355533 c -0.0882,0.01929 -0.27285,0.04961 -0.39963,0.04961 -0.19293,0 -0.3142,-0.132291 -0.3142,-0.418923 v -1.810741 h 0.64768 V 87.14057 h -0.64768 z" />
    </g>
    <g
       style="font-style:normal;font-variant:normal;font-weight:normal;font-stretch:normal;font-size:5.64444px;line-height:125%;font-family:'Roboto Slab';-inkscape-font-specification:'Roboto Slab';letter-spacing:0px;word-spacing:0px;fill:#b80078;fill-opacity:1;stroke:none;stroke-width:0.264583px;stroke-linecap:butt;stroke-linejoin:miter;stroke-opacity:1"
       id="text19687"
       aria-label="SquashFS">
      <path
         id="path159"
         style="font-size:7.05556px;fill:#b80078;fill-opacity:1;stroke-width:0.264583px"
         d="m 161.34772,54.263265 v -1.002524 c -0.34796,-0.303168 -0.89573,-0.54777 -1.59853,-0.54777 -0.99218,0 -1.65709,0.585666 -1.65709,1.371149 0,0.744141 0.56155,1.233345 1.59853,1.471056 0.87161,0.199816 1.16444,0.489204 1.16444,0.947402 0,0.496094 -0.39274,0.830269 -1.07831,0.830269 -0.40308,0 -0.75448,-0.106798 -1.05076,-0.289388 l -0.11369,-0.788928 h -0.5271 v 1.071426 c 0.51332,0.37207 1.08176,0.54777 1.69155,0.54777 1.06453,0 1.75699,-0.568441 1.75699,-1.378039 0,-0.754476 -0.55466,-1.267796 -1.60886,-1.529623 -0.85093,-0.210151 -1.1541,-0.458198 -1.1541,-0.892281 0,-0.492649 0.39618,-0.816488 0.9784,-0.816488 0.45476,0 0.75104,0.124024 0.95774,0.289388 l 0.11369,0.716581 z" />
      <path
         id="path161"
         style="font-size:7.05556px;fill:#b80078;fill-opacity:1;stroke-width:0.264583px"
         d="m 162.09875,56.006484 v 0.07235 c 0,1.074871 0.54088,1.794896 1.45039,1.794896 0.41685,0 0.74758,-0.144694 0.9853,-0.423747 v 1.250571 l -0.56156,0.09646 v 0.437528 h 1.76734 v -0.437528 l -0.5271,-0.09646 v -4.626767 h -0.58567 l -0.0551,0.409967 c -0.23771,-0.313504 -0.57878,-0.478869 -1.0163,-0.478869 -0.91984,0 -1.45728,0.802708 -1.45728,2.001602 z m 0.67869,0.07235 v -0.07235 c 0,-0.857829 0.30316,-1.467611 0.95084,-1.467611 0.36174,0 0.62701,0.179145 0.80616,0.458198 v 1.870688 c -0.17915,0.303168 -0.43753,0.475423 -0.81305,0.475423 -0.64423,0 -0.94395,-0.509874 -0.94395,-1.264351 z" />
      <path
         id="path163"
         style="font-size:7.05556px;fill:#b80078;fill-opacity:1;stroke-width:0.264583px"
         d="m 168.7409,57.250165 0.0448,0.551215 h 1.03697 v -0.434082 l -0.42719,-0.09646 v -3.197051 h -1.17823 v 0.437528 l 0.49954,0.09646 v 2.153186 c -0.16192,0.35829 -0.47197,0.561551 -0.95429,0.561551 -0.49609,0 -0.72347,-0.248047 -0.72347,-1.043865 v -2.204863 h -1.10588 v 0.437528 l 0.4272,0.09646 v 1.663982 c 0,1.098986 0.47887,1.60197 1.28846,1.60197 0.48232,0 0.85783,-0.223931 1.0921,-0.623562 z" />
      <path
         id="path165"
         style="font-size:7.05556px;fill:#b80078;fill-opacity:1;stroke-width:0.264583px"
         d="m 172.69587,57.80138 h 0.97496 v -0.434082 l -0.36173,-0.0379 c -0.0103,-0.09302 -0.0103,-0.18259 -0.0103,-0.279053 v -1.794896 c 0,-0.802708 -0.54432,-1.250571 -1.45038,-1.250571 -0.54088,0 -0.99219,0.141249 -1.32637,0.413412 v 0.854384 h 0.52366 l 0.0724,-0.520209 c 0.18603,-0.134359 0.40652,-0.213596 0.72002,-0.213596 0.4961,0 0.78204,0.258382 0.78204,0.70969 v 0.36518 h -0.6649 c -1.03009,0 -1.63987,0.468533 -1.63987,1.174778 0,0.68902 0.41341,1.085206 1.18856,1.085206 0.44442,0 0.85783,-0.251492 1.11965,-0.585666 0.0103,0.161919 0.031,0.310058 0.0724,0.513319 z m -1.09209,-0.496094 c -0.40997,0 -0.60979,-0.1757 -0.60979,-0.502984 0,-0.368626 0.31351,-0.723471 0.93707,-0.723471 h 0.68902 v 0.675239 c -0.16192,0.303169 -0.565,0.551216 -1.0163,0.551216 z" />
      <path
         id="path167"
         style="font-size:7.05556px;fill:#b80078;fill-opacity:1;stroke-width:0.264583px"
         d="m 177.00913,55.210667 -0.0344,-0.850939 c -0.29972,-0.217042 -0.68557,-0.354846 -1.25057,-0.354846 -0.83371,0 -1.39526,0.461644 -1.39526,1.064536 0,0.578776 0.40996,0.902615 1.31258,1.109321 0.6339,0.144694 0.83716,0.341065 0.83716,0.633898 0,0.313504 -0.22049,0.551216 -0.7717,0.551216 -0.27906,0 -0.50643,-0.04479 -0.76481,-0.151585 l -0.12747,-0.53399 h -0.51332 l 0.007,0.88539 c 0.49265,0.213596 0.89917,0.310059 1.39871,0.310059 1.00252,0 1.45038,-0.478868 1.45038,-1.109321 0,-0.551216 -0.35829,-0.916396 -1.39526,-1.160998 -0.62701,-0.148139 -0.75103,-0.292833 -0.75103,-0.554661 0,-0.299723 0.28939,-0.52021 0.71313,-0.52021 0.2825,0 0.50299,0.0689 0.66491,0.186036 l 0.11024,0.496094 z" />
      <path
         id="path169"
         style="font-size:7.05556px;fill:#b80078;fill-opacity:1;stroke-width:0.264583px"
         d="m 177.6327,57.367298 v 0.434082 h 1.80178 v -0.434082 l -0.56155,-0.09646 v -2.222088 c 0.19637,-0.303169 0.51332,-0.492649 0.88539,-0.492649 0.52366,0 0.78893,0.285943 0.78893,0.902616 v 1.812121 l -0.56155,0.09646 v 0.434082 h 1.80178 v -0.434082 l -0.56155,-0.09646 v -1.805231 c 0,-0.992188 -0.46164,-1.460722 -1.2609,-1.460722 -0.45476,0 -0.83372,0.206706 -1.0921,0.564997 v -2.142851 h -1.24023 v 0.437527 l 0.56155,0.09646 v 4.309817 z" />
      <path
         id="path171"
         style="font-size:7.05556px;fill:#b80078;fill-opacity:1;stroke-width:0.264583px"
         d="m 182.27324,57.367298 v 0.434082 h 1.80179 v -0.434082 l -0.56155,-0.09646 v -1.688098 h 1.83624 v -0.53399 h -1.83624 v -1.736329 h 1.91203 l 0.0758,0.678684 h 0.54433 v -1.205784 h -3.77239 v 0.437527 l 0.56155,0.09646 v 3.951527 z" />
      <path
         id="path173"
         style="font-size:7.05556px;fill:#b80078;fill-opacity:1;stroke-width:0.264583px"
         d="m 189.97993,54.263265 v -1.002524 c -0.34796,-0.303168 -0.89573,-0.54777 -1.59853,-0.54777 -0.99219,0 -1.65709,0.585666 -1.65709,1.371149 0,0.744141 0.56155,1.233345 1.59852,1.471056 0.87161,0.199816 1.16445,0.489204 1.16445,0.947402 0,0.496094 -0.39274,0.830269 -1.07832,0.830269 -0.40308,0 -0.75448,-0.106798 -1.05075,-0.289388 l -0.11369,-0.788928 h -0.5271 v 1.071426 c 0.51332,0.37207 1.08176,0.54777 1.69154,0.54777 1.06454,0 1.757,-0.568441 1.757,-1.378039 0,-0.754476 -0.55466,-1.267796 -1.60886,-1.529623 -0.85094,-0.210151 -1.15411,-0.458198 -1.15411,-0.892281 0,-0.492649 0.39619,-0.816488 0.97841,-0.816488 0.45475,0 0.75103,0.124024 0.95774,0.289388 l 0.11369,0.716581 z" />
    </g>
    <g
       style="font-style:normal;font-variant:normal;font-weight:normal;font-stretch:normal;font-size:5.64444px;line-height:125%;font-family:'Roboto Slab';-inkscape-font-specification:'Roboto Slab';letter-spacing:0px;word-spacing:0px;fill:#ffffff;fill-opacity:1;stroke:none;stroke-width:0.264583px;stroke-linecap:butt;stroke-linejoin:miter;stroke-opacity:1"
       id="text20303"
       aria-label="X.509 (CMS) signature">
      <path
         id="path176"
         style="font-size:7.05556px;fill:#ffffff;stroke-width:0.264583px"
         d="m 66.337032,103.52722 v 0.43408 h 1.639867 v -0.43408 l -0.458198,-0.0448 1.185113,-1.62954 1.188559,1.62954 -0.485759,0.0448 v 0.43408 h 1.646757 v -0.43408 l -0.444418,-0.0758 -1.508953,-2.03605 1.360814,-1.956819 0.458198,-0.07579 v -0.437528 h -1.636421 v 0.437528 l 0.482313,0.04479 -1.0542,1.546845 -1.109321,-1.546845 0.471978,-0.04479 v -0.437528 h -1.626086 v 0.437528 l 0.437528,0.07579 1.44005,1.956819 -1.553739,2.03605 z" />
      <path
         id="path178"
         style="font-size:7.05556px;fill:#ffffff;stroke-width:0.264583px"
         d="m 72.507202,103.9613 v -0.69591 h -0.678684 v 0.69591 z" />
      <path
         id="path180"
         style="font-size:7.05556px;fill:#ffffff;stroke-width:0.264583px"
         d="m 75.848946,99.93743 h 0.509875 v -0.992189 h -2.64928 l -0.289388,2.752629 0.564996,0.0586 c 0.110243,-0.33073 0.310058,-0.4892 0.844049,-0.4892 0.564996,0 0.902615,0.45475 0.902615,1.10243 0,0.7028 -0.330729,1.13344 -0.906061,1.13344 -0.496094,0 -0.844048,-0.3204 -0.844048,-0.86128 h -0.613228 l -0.0069,0.0207 c -0.02412,0.89917 0.613227,1.37115 1.464166,1.37115 1.03353,0 1.584745,-0.6649 1.584745,-1.67087 0,-1.03353 -0.564996,-1.69499 -1.488282,-1.68465 -0.341064,0.0103 -0.592557,0.12402 -0.799262,0.27905 l 0.161919,-1.409046 h 1.498618 z" />
      <path
         id="path182"
         style="font-size:7.05556px;fill:#ffffff;stroke-width:0.264583px"
         d="m 80.362025,102.04927 v -1.18855 c 0,-1.278135 -0.613228,-1.987826 -1.601971,-1.987826 -0.981853,0 -1.591635,0.709691 -1.591635,1.987826 v 1.18855 c 0,1.27814 0.616672,1.98438 1.598525,1.98438 0.988743,0 1.595081,-0.7028 1.595081,-1.98438 z m -0.678685,-1.33325 v 1.47106 c 0,0.87161 -0.313504,1.31603 -0.916396,1.31603 -0.592557,0 -0.919841,-0.44787 -0.919841,-1.31603 v -1.47106 c 0,-0.868163 0.320394,-1.309135 0.912951,-1.309135 0.602892,0 0.923286,0.440972 0.923286,1.309135 z" />
      <path
         id="path184"
         style="font-size:7.05556px;fill:#ffffff;stroke-width:0.264583px"
         d="m 82.535881,103.50311 c -0.368625,0 -0.644233,-0.0517 -0.923286,-0.18604 l -0.103353,0.51332 c 0.289388,0.1378 0.678684,0.20326 1.026639,0.20326 1.074871,0 1.774226,-0.74414 1.774226,-2.31166 v -0.90606 c 0,-1.281577 -0.644234,-1.943036 -1.691543,-1.943036 -0.86472,0 -1.553739,0.740696 -1.553739,1.788006 0,1.0921 0.602892,1.72599 1.581299,1.72599 0.413412,0 0.761367,-0.17225 0.943957,-0.47886 l 0.01378,0.0172 c -0.01378,1.10588 -0.416857,1.57786 -1.067981,1.57786 z m 0.110243,-1.65021 c -0.56155,0 -0.902615,-0.47197 -0.902615,-1.192 0,-0.733806 0.396186,-1.254015 0.895725,-1.254015 0.647679,0 0.992188,0.454752 0.992188,1.340145 v 0.53054 c -0.148139,0.33418 -0.485758,0.57533 -0.985298,0.57533 z" />
      <path
         id="path186"
         style="font-size:7.05556px;fill:#ffffff;stroke-width:0.264583px"
         d="m 86.897376,101.92525 v 0.031 c 0,1.81556 0.895725,3.17293 1.698433,3.60012 h 0.02067 l 0.127468,-0.37207 c -0.633898,-0.53399 -1.167888,-1.62264 -1.167888,-3.22116 v -0.0448 c 0,-1.59508 0.537435,-2.697511 1.167888,-3.19016 l -0.127468,-0.399631 -0.02067,-0.0034 c -0.802708,0.427192 -1.698433,1.791446 -1.698433,3.600126 z" />
      <path
         id="path188"
         style="font-size:7.05556px;fill:#ffffff;stroke-width:0.264583px"
         d="m 92.829833,100.49209 v -1.08176 c -0.354845,-0.313504 -0.909506,-0.537436 -1.557185,-0.537436 -1.381484,0 -2.211752,1.074871 -2.211752,2.545926 v 0.0724 c 0,1.46072 0.757921,2.54248 2.270319,2.54248 0.554661,0 1.109322,-0.1378 1.484837,-0.37207 v -1.08865 h -0.530545 l -0.07579,0.69935 c -0.203261,0.12403 -0.53399,0.21016 -0.854384,0.21016 -1.036975,0 -1.612306,-0.72692 -1.612306,-1.99127 v -0.0792 c 0,-1.161 0.54088,-1.977485 1.526178,-1.977485 0.403077,0 0.726916,0.09646 0.947402,0.265273 l 0.07235,0.792372 z" />
      <path
         id="path190"
         style="font-size:7.05556px;fill:#ffffff;stroke-width:0.264583px"
         d="m 98.507355,99.868528 0.01723,0.0034 v 3.558787 l -0.592557,0.0965 v 0.43408 h 1.801786 v -0.43408 l -0.561551,-0.0965 v -3.951528 l 0.561551,-0.09646 v -0.437528 h -1.512398 l -1.564074,3.806829 h -0.02067 l -1.615751,-3.806829 h -1.467611 v 0.437528 l 0.561551,0.09646 v 3.951528 l -0.561551,0.0965 v 0.43408 h 1.801786 v -0.43408 l -0.606337,-0.0965 v -1.45383 l -0.02412,-2.098067 0.01722,-0.0034 1.684653,3.906742 h 0.451308 z" />
      <path
         id="path192"
         style="font-size:7.05556px;fill:#ffffff;stroke-width:0.264583px"
         d="m 103.71634,100.42319 v -1.002525 c -0.34795,-0.303169 -0.89572,-0.547771 -1.59852,-0.547771 -0.99219,0 -1.6571,0.585667 -1.6571,1.371146 0,0.74414 0.56156,1.23335 1.59853,1.47106 0.87161,0.19982 1.16444,0.4892 1.16444,0.9474 0,0.4961 -0.39274,0.83027 -1.07831,0.83027 -0.40308,0 -0.75448,-0.1068 -1.05076,-0.28939 l -0.11369,-0.78893 h -0.5271 v 1.07143 c 0.51332,0.37207 1.08176,0.54777 1.69155,0.54777 1.06453,0 1.757,-0.56844 1.757,-1.37804 0,-0.75447 -0.55466,-1.26779 -1.60886,-1.52962 -0.85094,-0.21015 -1.15411,-0.4582 -1.15411,-0.89228 0,-0.492651 0.39618,-0.81649 0.97841,-0.81649 0.45475,0 0.75103,0.124023 0.95773,0.289388 l 0.11369,0.716582 z" />
      <path
         id="path194"
         style="font-size:7.05556px;fill:#ffffff;stroke-width:0.264583px"
         d="m 106.09691,101.95626 v -0.031 c 0,-1.80868 -0.89918,-3.172934 -1.69844,-3.600126 h -0.0207 l -0.12747,0.37207 c 0.59256,0.50643 1.16789,1.646756 1.16789,3.221166 v 0.0448 c 0,1.60197 -0.54777,2.73885 -1.16789,3.22116 l 0.12747,0.37207 h 0.0207 c 0.79926,-0.42719 1.69844,-1.78456 1.69844,-3.60012 z" />
      <path
         id="path196"
         style="font-size:7.05556px;fill:#ffffff;stroke-width:0.264583px"
         d="m 111.28522,101.37059 -0.0344,-0.85094 c -0.29972,-0.21704 -0.68557,-0.35484 -1.25057,-0.35484 -0.83371,0 -1.39526,0.46164 -1.39526,1.06453 0,0.57878 0.40996,0.90262 1.31258,1.10932 0.6339,0.1447 0.83716,0.34107 0.83716,0.6339 0,0.3135 -0.22049,0.55122 -0.7717,0.55122 -0.27906,0 -0.50643,-0.0448 -0.76482,-0.15159 l -0.12746,-0.53399 h -0.51332 l 0.007,0.88539 c 0.49265,0.2136 0.89917,0.31006 1.39871,0.31006 1.00252,0 1.45038,-0.47887 1.45038,-1.10932 0,-0.55122 -0.35829,-0.9164 -1.39526,-1.161 -0.62701,-0.14814 -0.75103,-0.29283 -0.75103,-0.55466 0,-0.29972 0.28938,-0.52021 0.71313,-0.52021 0.2825,0 0.50299,0.0689 0.66491,0.18604 l 0.11024,0.49609 z" />
      <path
         id="path198"
         style="font-size:7.05556px;fill:#ffffff;stroke-width:0.264583px"
         d="m 113.21103,99.313867 v -0.726916 h -0.71313 v 0.726916 z m -1.24023,4.213353 v 0.43408 h 1.80178 v -0.43408 l -0.56155,-0.0965 v -3.19705 h -1.24023 v 0.43753 l 0.56155,0.0965 v 2.66306 z" />
      <path
         id="path200"
         style="font-size:7.05556px;fill:#ffffff;stroke-width:0.264583px"
         d="m 114.24112,102.16641 v 0.0723 c 0,1.07143 0.5581,1.7949 1.47105,1.7949 0.44098,0 0.7786,-0.16192 1.0232,-0.47542 v 0.35484 c 0,0.63046 -0.27217,0.98186 -0.8785,0.98186 -0.32729,0 -0.69936,-0.0965 -0.95085,-0.23083 l -0.1757,0.5271 c 0.31695,0.16881 0.77515,0.27561 1.13344,0.27561 0.99219,0 1.55029,-0.58911 1.55029,-1.55374 v -3.14537 l 0.46164,-0.0999 v -0.43408 h -1.03352 l -0.062,0.46853 c -0.23771,-0.34795 -0.59255,-0.53743 -1.06109,-0.53743 -0.92328,0 -1.47794,0.8027 -1.47794,2.0016 z m 0.67868,0.0723 v -0.0723 c 0,-0.85094 0.32039,-1.45039 0.96807,-1.45039 0.39619,0 0.6718,0.19982 0.8475,0.51677 v 1.71565 c -0.17915,0.34107 -0.44442,0.534 -0.85439,0.534 -0.64768,0 -0.96118,-0.4961 -0.96118,-1.24369 z" />
      <path
         id="path202"
         style="font-size:7.05556px;fill:#ffffff;stroke-width:0.264583px"
         d="m 118.21332,103.52722 v 0.43408 h 1.80178 v -0.43408 l -0.56155,-0.0965 v -2.18764 c 0.17915,-0.32728 0.4892,-0.5271 0.8785,-0.5271 0.53399,0 0.78893,0.24805 0.78893,0.90606 v 1.80868 l -0.56155,0.0965 v 0.43408 h 1.80178 v -0.43408 l -0.56155,-0.0965 v -1.82246 c 0,-0.98185 -0.46164,-1.44349 -1.26435,-1.44349 -0.47887,0 -0.85783,0.22737 -1.10588,0.62356 l -0.0482,-0.55466 h -1.16788 v 0.43753 l 0.56155,0.0965 v 2.66306 z" />
      <path
         id="path204"
         style="font-size:7.05556px;fill:#ffffff;stroke-width:0.264583px"
         d="m 125.26198,103.9613 h 0.97496 v -0.43408 l -0.36173,-0.0379 c -0.0103,-0.093 -0.0103,-0.18259 -0.0103,-0.27906 v -1.79489 c 0,-0.80271 -0.54432,-1.25057 -1.45038,-1.25057 -0.54088,0 -0.99219,0.14125 -1.32636,0.41341 v 0.85438 h 0.52365 l 0.0724,-0.52021 c 0.18603,-0.13436 0.40652,-0.21359 0.72002,-0.21359 0.4961,0 0.78204,0.25838 0.78204,0.70969 v 0.36518 h -0.6649 c -1.03009,0 -1.63987,0.46853 -1.63987,1.17477 0,0.68902 0.41341,1.08521 1.18856,1.08521 0.44442,0 0.85783,-0.25149 1.11965,-0.58567 0.0103,0.16192 0.031,0.31006 0.0724,0.51332 z m -1.09209,-0.49609 c -0.40997,0 -0.60979,-0.1757 -0.60979,-0.50298 0,-0.36863 0.31351,-0.72348 0.93707,-0.72348 h 0.68902 v 0.67524 c -0.16192,0.30317 -0.565,0.55122 -1.0163,0.55122 z" />
      <path
         id="path206"
         style="font-size:7.05556px;fill:#ffffff;stroke-width:0.264583px"
         d="m 127.85959,99.334537 h -0.67869 v 0.899173 h -0.58911 v 0.50298 h 0.58911 v 2.26343 c 0,0.71314 0.34796,1.01975 0.89917,1.01975 0.24805,0 0.56845,-0.0517 0.76482,-0.11369 l -0.093,-0.44442 c -0.11025,0.0241 -0.34107,0.062 -0.49954,0.062 -0.24116,0 -0.39274,-0.16537 -0.39274,-0.52366 v -2.26343 h 0.8096 v -0.50298 h -0.8096 z" />
      <path
         id="path208"
         style="font-size:7.05556px;fill:#ffffff;stroke-width:0.264583px"
         d="m 132.01093,103.41009 0.0448,0.55121 h 1.03698 v -0.43408 l -0.42719,-0.0965 v -3.19705 h -1.17823 v 0.43753 l 0.49954,0.0965 v 2.15318 c -0.16192,0.35829 -0.47198,0.56156 -0.95429,0.56156 -0.49609,0 -0.72347,-0.24805 -0.72347,-1.04387 v -2.20486 h -1.10588 v 0.43753 l 0.4272,0.0965 v 1.66398 c 0,1.09899 0.47886,1.60197 1.28846,1.60197 0.48232,0 0.85783,-0.22393 1.0921,-0.62356 z" />
      <path
         id="path210"
         style="font-size:7.05556px;fill:#ffffff;stroke-width:0.264583px"
         d="m 133.56123,103.52722 v 0.43408 h 1.80178 v -0.43408 l -0.56155,-0.0965 v -2.11185 c 0.13091,-0.31006 0.37552,-0.51676 0.73381,-0.49609 l 0.47198,0.0276 0.0896,-0.63045 c -0.0655,-0.0241 -0.23771,-0.0551 -0.37896,-0.0551 -0.39963,0 -0.71314,0.22737 -0.92329,0.60978 l -0.007,-0.0655 -0.0586,-0.47542 h -1.16788 v 0.43753 l 0.56155,0.0965 v 2.66306 z" />
      <path
         id="path212"
         style="font-size:7.05556px;fill:#ffffff;stroke-width:0.264583px"
         d="m 138.1432,104.03365 c 0.61668,0 1.0542,-0.19981 1.31948,-0.4582 l -0.26528,-0.44097 c -0.25149,0.23082 -0.596,0.36863 -1.0542,0.36863 -0.63045,0 -0.99218,-0.51332 -1.00596,-1.2299 l 0.0103,-0.0172 h 2.41846 v -0.42375 c 0,-1.00941 -0.52365,-1.66742 -1.52618,-1.66742 -0.86472,0 -1.59508,0.79237 -1.59508,1.85346 v 0.15158 c 0,1.10243 0.66146,1.8638 1.69843,1.8638 z m -0.10335,-3.33485 c 0.56155,0 0.8475,0.40307 0.8475,0.93706 v 0.0896 h -1.71911 l -0.007,-0.0172 c 0.0724,-0.57878 0.42375,-1.00941 0.8785,-1.00941 z" />
    </g>
    <g
       transform="translate(0,5.4122049)"
       id="g20819">
      <g
         style="font-style:normal;font-weight:normal;font-size:2.3709px;line-height:0%;font-family:sans-serif;letter-spacing:0px;word-spacing:0px;fill:#0078b8;fill-opacity:1;stroke:none;stroke-width:0.197575px;stroke-linecap:butt;stroke-linejoin:miter;stroke-opacity:1"
         id="text12151-1"
         aria-label="">
        <path
           id="path215"
           style="font-style:normal;font-variant:normal;font-weight:normal;font-stretch:normal;font-size:12.6398px;line-height:1.25;font-family:FontAwesome;-inkscape-font-specification:FontAwesome;fill:#0078b8;fill-opacity:1;stroke-width:0.197575px"
           d="m 12.211296,99.120824 c 0,0.747667 -0.606597,1.354266 -1.354264,1.354266 -0.20455,0 -0.402047,-0.0494 -0.585437,-0.13402 0.08464,0.18339 0.134016,0.38089 0.134016,0.58544 0,0.74767 -0.6065979,1.35426 -1.3542646,1.35426 -0.7476668,0 -1.3542643,-0.60659 -1.3542643,-1.35426 0,-0.74767 0.6065975,-1.354265 1.3542643,-1.354265 0.2045503,0 0.4020472,0.04937 0.5854371,0.134016 -0.084642,-0.18339 -0.1340157,-0.380887 -0.1340157,-0.585437 0,-0.747667 0.6065972,-1.354264 1.3542642,-1.354264 0.747667,0 1.354264,0.606597 1.354264,1.354264 z m 6.002495,4.965636 c 0,-0.20455 -1.967916,-2.05961 -2.228894,-2.32059 -0.04232,-0.0423 -0.105801,-0.0705 -0.162229,-0.0705 -0.16223,0 -0.811148,0.64892 -0.811148,0.81114 0,0.18339 0.663025,0.75472 0.811148,0.90285 l -0.677132,0.67713 -2.503979,-2.50398 c 0.55017,-0.74061 0.924004,-1.643455 0.924004,-2.574511 0,-1.537655 -1.065073,-2.595674 -2.595674,-2.595674 -2.3135344,0 -4.6270692,2.313535 -4.6270692,4.627075 0,1.5306 1.058019,2.59567 2.5956732,2.59567 0.9310567,0 1.8339,-0.37384 2.574513,-0.924 l 4.732871,4.73287 c 0.126963,0.12696 0.303299,0.19749 0.479636,0.19749 0.394993,0 0.846415,-0.45142 0.846415,-0.84641 0,-0.17634 -0.07053,-0.35267 -0.197497,-0.47964 l -1.551761,-1.55176 0.677132,-0.67713 c 0.148123,0.14812 0.719453,0.81115 0.902843,0.81115 0.162229,0 0.811148,-0.64892 0.811148,-0.81115 z" />
      </g>
      <g
         id="g1562"
         transform="matrix(0.10268245,0,0,0.10268245,1.8241882,79.706807)">
        <path
           id="path1513"
           d="M 159.32258,31.210741 137.12403,9.0122013 c -2.38125,-2.38125 -5.60916,-3.73063 -8.96937,-3.73063 H 74.153204 c -7.01146,0.0265 -12.7,5.7149997 -12.7,12.7264597 V 128.0747 c 0,7.01145 5.68854,12.7 12.7,12.7 H 150.3532 c 7.01146,0 12.7,-5.68855 12.7,-12.7 V 40.206571 c 0,-3.36021 -1.34938,-6.61458 -3.73062,-8.99583 z m -10.00125,7.96396 h -20.1348 v -20.1348 z M 74.153204,128.0747 V 18.008031 h 42.333326 v 27.51667 c 0,3.51895 2.83105,6.35 6.35,6.35 H 150.3532 V 128.0747 Z"
           inkscape:connector-curvature="0"
           style="fill:#0078b8;fill-opacity:1;stroke-width:0.26458332" />
        <g
           id="g1537"
           transform="matrix(1.2748904,0,0,1.2748904,0.88244733,-159.13566)">
          <path
             id="path1533"
             d="m 72.694849,250.71647 0.04619,-32.40503 c -1.757093,0.48961 -6.229422,0.74697 -8.089416,0.50892 -4.120232,-0.52917 -3.128369,-0.6287 -5.282707,0.2723 -3.425846,1.43131 -7.204232,1.44379 -10.640165,0.0344 -2.191952,-0.89917 -4.055061,-2.39421 -5.529237,-4.24023 l -0.05311,35.77406 c -0.0049,2.215 2.280601,3.69394 4.298501,2.78432 l 9.154201,-4.12484 9.138786,4.16261 c 2.015662,0.91742 6.952749,-0.55319 6.956963,-2.76644 z M 56.796922,222.90415 c 3.81632,-1.63548 4.027818,-1.27289 8.290589,-0.74494 2.721386,0.33617 5.433635,-0.82588 7.111147,-3.0485 3.37075,-4.46348 2.780997,-3.99933 7.879259,-6.18555 2.540073,-1.08861 4.330303,-3.46053 4.696876,-6.22092 0.73509,-5.54054 0.447099,-4.8435 3.818571,-9.30871 1.677515,-2.22263 2.068698,-5.16847 1.024832,-7.72723 -2.094291,-5.13673 -1.999661,-4.39389 -1.265609,-9.93691 0.366573,-2.76038 -0.74828,-5.49237 -2.92178,-7.16414 -4.362449,-3.35607 -3.91425,-2.76259 -6.011344,-7.9025 -1.043869,-2.55878 -3.364207,-4.34431 -6.08559,-4.68049 -5.460072,-0.67531 -4.775371,-0.39237 -9.144873,-3.75134 -2.173497,-1.67177 -5.078582,-2.03184 -7.619375,-0.94147 -5.098265,2.18621 -4.363112,2.0802 -9.827433,1.4052 -2.721385,-0.33617 -5.433624,0.8259 -7.11114,3.0485 -3.368271,4.46244 -2.780998,3.99932 -7.879257,6.18556 -2.540073,1.0886 -4.332069,3.45981 -4.69688,6.22091 -0.733643,5.53701 -0.445656,4.83996 -3.817844,9.30696 -1.677516,2.22261 -2.068735,5.16845 -1.025559,7.72899 2.094288,5.13672 2.000379,4.39213 1.265608,9.9369 -0.36657,2.76038 0.748281,5.49237 2.921778,7.16416 3.50249,2.69246 3.866128,2.64401 5.377379,6.35174 1.357529,3.32969 4.814856,5.24404 8.343601,4.6207 2.882571,-0.51375 5.802468,0.68403 7.493863,3.0741 2.072704,2.9211 5.878414,3.98615 9.183181,2.56898 z"
             inkscape:connector-curvature="0"
             style="fill:#ffffff;stroke:#ffffff;stroke-width:0.19045074"
             sodipodi:nodetypes="ccccscccccccscccccccccccscccccccccccs" />
          <path
             sodipodi:nodetypes="ccccscccccccccccccccccccscccccccccccsssss"
             style="fill:#0078b8;fill-opacity:1;stroke-width:0.1597915"
             inkscape:connector-curvature="0"
             d="m 67.773706,241.11376 0.03876,-19.19675 c -1.474232,0.4108 -3.006694,0.62673 -4.567262,0.42699 -3.456946,-0.44398 -2.624756,-0.52748 -4.432284,0.22847 -2.874344,1.2009 -6.044476,1.21136 -8.927284,0.0288 -1.839086,-0.75442 -3.402267,-2.00878 -4.639126,-3.55763 l -0.04456,22.02343 c -0.0041,1.85842 1.913463,3.09928 3.606518,2.33609 l 7.680534,-3.46081 7.667601,3.4925 c 1.691176,0.76974 3.613578,-0.46413 3.617113,-2.32109 z M 56.654967,217.77874 c 3.201959,-1.3722 3.37941,-1.06798 6.95595,-0.62502 2.283289,0.28205 4.558914,-0.69294 5.966376,-2.55775 2.828118,-3.74493 2.333305,-3.3555 6.610836,-5.18978 2.131166,-0.91336 3.6332,-2.90345 3.940761,-5.21946 0.616754,-4.64861 0.375124,-4.06378 3.203848,-7.81018 1.407464,-1.86482 1.735675,-4.33643 0.859853,-6.48328 -1.757148,-4.3098 -1.677751,-3.68654 -1.061869,-8.33724 0.307561,-2.316 -0.62782,-4.60819 -2.451424,-6.01084 -3.660172,-2.8158 -3.284125,-2.31785 -5.043623,-6.63033 -0.875825,-2.14686 -2.822628,-3.64495 -5.105917,-3.92701 -4.581096,-0.5666 -4.006619,-0.32921 -7.672708,-3.14744 -1.823602,-1.40265 -4.261019,-1.70475 -6.392789,-0.78992 -4.277533,1.83428 -3.660727,1.74533 -8.245389,1.17899 -2.283288,-0.28205 -4.558904,0.69295 -5.96637,2.55775 -2.826038,3.74406 -2.333306,3.3555 -6.610834,5.18979 -2.131166,0.91335 -3.634682,2.90284 -3.940765,5.21945 -0.615539,4.64565 -0.373913,4.06082 -3.203237,7.80871 -1.407466,1.86481 -1.735706,4.33641 -0.860463,6.48476 1.757145,4.30979 1.678353,3.68506 1.061868,8.33723 -0.307559,2.316 0.627821,4.60819 2.451422,6.01085 2.938651,2.25902 3.24375,2.21837 4.511715,5.32922 1.138991,2.79367 4.039749,4.39984 7.000427,3.87685 2.418529,-0.43104 4.868373,0.57392 6.287483,2.57922 1.739035,2.45087 4.932092,3.34446 7.704849,2.15543 z M 42.159822,183.50073 c 3.215981,-7.83977 12.067688,-11.63363 19.769961,-8.47405 7.702273,3.15957 11.339776,12.07668 8.123799,19.91644 -3.215974,7.83976 -12.067686,11.63362 -19.769958,8.47404 -7.702271,-3.15957 -11.339776,-12.07668 -8.123802,-19.91643 z"
             id="path1454" />
        </g>
      </g>
    </g>
    <g
       style="font-style:normal;font-variant:normal;font-weight:normal;font-stretch:normal;font-size:5.64444px;line-height:125%;font-family:'Roboto Slab';-inkscape-font-specification:'Roboto Slab';letter-spacing:0px;word-spacing:0px;fill:#ffffff;fill-opacity:1;stroke:none;stroke-width:0.264583px;stroke-linecap:butt;stroke-linejoin:miter;stroke-opacity:1"
       id="text20303-6"
       aria-label="signature size">
      <path
         id="path218"
         style="font-size:7.05556px;fill:#ffffff;stroke-width:0.264583px"
         d="m 82.310217,114.494 -0.03445,-0.85094 c -0.299724,-0.21704 -0.685575,-0.35484 -1.250571,-0.35484 -0.833714,0 -1.395264,0.46164 -1.395264,1.06453 0,0.57878 0.409966,0.90262 1.312582,1.10933 0.633898,0.14469 0.837159,0.34106 0.837159,0.63389 0,0.31351 -0.220487,0.55122 -0.771702,0.55122 -0.279053,0 -0.50643,-0.0448 -0.764812,-0.15158 l -0.127469,-0.534 H 79.60237 l 0.0069,0.8854 c 0.492649,0.21359 0.89917,0.31005 1.39871,0.31005 1.002523,0 1.450386,-0.47886 1.450386,-1.10932 0,-0.55121 -0.35829,-0.91639 -1.395265,-1.161 -0.627008,-0.14813 -0.751031,-0.29283 -0.751031,-0.55466 0,-0.29972 0.289388,-0.52021 0.713135,-0.52021 0.282498,0 0.502984,0.0689 0.664904,0.18604 l 0.110243,0.49609 z" />
      <path
         id="path220"
         style="font-size:7.05556px;fill:#ffffff;stroke-width:0.264583px"
         d="m 84.236026,112.43728 v -0.72692 h -0.713135 v 0.72692 z m -1.240235,4.21335 v 0.43409 h 1.801786 v -0.43409 l -0.561551,-0.0965 v -3.19705 h -1.240235 v 0.43753 l 0.561551,0.0965 v 2.66306 z" />
      <path
         id="path222"
         style="font-size:7.05556px;fill:#ffffff;stroke-width:0.264583px"
         d="m 85.26611,115.28982 v 0.0724 c 0,1.07142 0.558106,1.79489 1.471057,1.79489 0.440973,0 0.778592,-0.16192 1.023194,-0.47542 v 0.35485 c 0,0.63045 -0.272162,0.98185 -0.8785,0.98185 -0.327284,0 -0.699355,-0.0965 -0.950847,-0.23082 l -0.1757,0.5271 c 0.316949,0.16881 0.775147,0.2756 1.133438,0.2756 0.992188,0 1.550293,-0.58911 1.550293,-1.55373 v -3.14538 l 0.461644,-0.0999 v -0.43408 h -1.03353 l -0.06201,0.46853 c -0.237711,-0.34795 -0.592556,-0.53743 -1.06109,-0.53743 -0.923286,0 -1.477947,0.80271 -1.477947,2.0016 z m 0.678685,0.0724 v -0.0724 c 0,-0.85094 0.320394,-1.45039 0.968072,-1.45039 0.396186,0 0.671794,0.19982 0.847494,0.51677 v 1.71566 c -0.179145,0.34106 -0.444417,0.53399 -0.854384,0.53399 -0.647678,0 -0.961182,-0.4961 -0.961182,-1.24368 z" />
      <path
         id="path224"
         style="font-size:7.05556px;fill:#ffffff;stroke-width:0.264583px"
         d="m 89.238308,116.65063 v 0.43409 h 1.801786 v -0.43409 l -0.561551,-0.0965 v -2.18764 c 0.179145,-0.32728 0.489204,-0.5271 0.8785,-0.5271 0.53399,0 0.788927,0.24805 0.788927,0.90607 v 1.80867 l -0.56155,0.0965 v 0.43409 h 1.801786 v -0.43409 l -0.561551,-0.0965 v -1.82245 c 0,-0.98186 -0.461643,-1.4435 -1.264351,-1.4435 -0.478869,0 -0.857829,0.22738 -1.105876,0.62356 l -0.04823,-0.55466 h -1.167888 v 0.43753 l 0.561551,0.0965 v 2.66306 z" />
      <path
         id="path226"
         style="font-size:7.05556px;fill:#ffffff;stroke-width:0.264583px"
         d="m 96.286978,117.08472 h 0.974962 v -0.43409 l -0.361735,-0.0379 c -0.01033,-0.093 -0.01033,-0.18259 -0.01033,-0.27905 v -1.7949 c 0,-0.80271 -0.544326,-1.25057 -1.450386,-1.25057 -0.540881,0 -0.992188,0.14125 -1.326363,0.41341 v 0.85439 h 0.523655 l 0.07235,-0.52021 c 0.186035,-0.13436 0.406522,-0.2136 0.720025,-0.2136 0.496095,0 0.782038,0.25838 0.782038,0.70969 v 0.36518 h -0.664904 c -1.030084,0 -1.639867,0.46853 -1.639867,1.17478 0,0.68902 0.413412,1.0852 1.188559,1.0852 0.444418,0 0.857829,-0.25149 1.119657,-0.58566 0.01033,0.16192 0.03101,0.31006 0.07235,0.51332 z m -1.092096,-0.4961 c -0.409967,0 -0.609782,-0.1757 -0.609782,-0.50298 0,-0.36863 0.313503,-0.72347 0.937066,-0.72347 h 0.68902 v 0.67524 c -0.16192,0.30317 -0.564996,0.55121 -1.016304,0.55121 z" />
      <path
         id="path228"
         style="font-size:7.05556px;fill:#ffffff;stroke-width:0.264583px"
         d="m 98.884582,112.45795 h -0.678685 v 0.89917 h -0.589111 v 0.50299 h 0.589111 v 2.26342 c 0,0.71314 0.347955,1.01975 0.899171,1.01975 0.248047,0 0.568441,-0.0517 0.764812,-0.11368 l -0.09302,-0.44442 c -0.110243,0.0241 -0.341065,0.062 -0.499539,0.062 -0.241157,0 -0.392741,-0.16537 -0.392741,-0.52366 v -2.26342 h 0.809598 v -0.50299 h -0.809598 z" />
      <path
         id="path230"
         style="font-size:7.05556px;fill:#ffffff;stroke-width:0.264583px"
         d="m 103.03592,116.5335 0.0448,0.55122 h 1.03697 v -0.43409 l -0.42719,-0.0965 v -3.19705 h -1.17822 v 0.43753 l 0.49954,0.0965 v 2.15319 c -0.16192,0.35829 -0.47198,0.56155 -0.95429,0.56155 -0.4961,0 -0.72347,-0.24805 -0.72347,-1.04387 v -2.20486 h -1.10588 v 0.43753 l 0.42719,0.0965 v 1.66398 c 0,1.09899 0.47887,1.60197 1.28847,1.60197 0.48231,0 0.85783,-0.22393 1.09209,-0.62356 z" />
      <path
         id="path232"
         style="font-size:7.05556px;fill:#ffffff;stroke-width:0.264583px"
         d="m 104.58622,116.65063 v 0.43409 h 1.80178 v -0.43409 l -0.56155,-0.0965 v -2.11184 c 0.13092,-0.31006 0.37552,-0.51677 0.73381,-0.4961 l 0.47198,0.0276 0.0896,-0.63045 c -0.0655,-0.0241 -0.23771,-0.0551 -0.37896,-0.0551 -0.39963,0 -0.71314,0.22738 -0.92329,0.60978 l -0.007,-0.0655 -0.0586,-0.47542 h -1.16789 v 0.43753 l 0.56155,0.0965 v 2.66306 z" />
      <path
         id="path234"
         style="font-size:7.05556px;fill:#ffffff;stroke-width:0.264583px"
         d="m 109.1682,117.15706 c 0.61667,0 1.0542,-0.19981 1.31947,-0.45819 l -0.26527,-0.44098 c -0.25149,0.23082 -0.596,0.36863 -1.0542,0.36863 -0.63045,0 -0.99219,-0.51332 -1.00597,-1.2299 l 0.0103,-0.0172 h 2.41845 v -0.42374 c 0,-1.00942 -0.52365,-1.66743 -1.52617,-1.66743 -0.86472,0 -1.59508,0.79237 -1.59508,1.85346 v 0.15159 c 0,1.10243 0.66145,1.86379 1.69843,1.86379 z m -0.10335,-3.33485 c 0.56155,0 0.84749,0.40308 0.84749,0.93707 v 0.0896 h -1.7191 l -0.007,-0.0172 c 0.0723,-0.57877 0.42374,-1.00941 0.8785,-1.00941 z" />
      <path
         id="path236"
         style="font-size:7.05556px;fill:#ffffff;stroke-width:0.264583px"
         d="m 115.68288,114.494 -0.0344,-0.85094 c -0.29973,-0.21704 -0.68558,-0.35484 -1.25057,-0.35484 -0.83372,0 -1.39527,0.46164 -1.39527,1.06453 0,0.57878 0.40997,0.90262 1.31258,1.10933 0.6339,0.14469 0.83716,0.34106 0.83716,0.63389 0,0.31351 -0.22048,0.55122 -0.7717,0.55122 -0.27905,0 -0.50643,-0.0448 -0.76481,-0.15158 l -0.12747,-0.534 h -0.51332 l 0.007,0.8854 c 0.49265,0.21359 0.89917,0.31005 1.39871,0.31005 1.00252,0 1.45039,-0.47886 1.45039,-1.10932 0,-0.55121 -0.35829,-0.91639 -1.39527,-1.161 -0.62701,-0.14813 -0.75103,-0.29283 -0.75103,-0.55466 0,-0.29972 0.28939,-0.52021 0.71314,-0.52021 0.28249,0 0.50298,0.0689 0.6649,0.18604 l 0.11024,0.49609 z" />
      <path
         id="path238"
         style="font-size:7.05556px;fill:#ffffff;stroke-width:0.264583px"
         d="m 117.60869,112.43728 v -0.72692 h -0.71314 v 0.72692 z m -1.24024,4.21335 v 0.43409 h 1.80179 v -0.43409 l -0.56155,-0.0965 v -3.19705 h -1.24024 v 0.43753 l 0.56155,0.0965 v 2.66306 z" />
      <path
         id="path240"
         style="font-size:7.05556px;fill:#ffffff;stroke-width:0.264583px"
         d="m 119.50694,116.56795 2.04983,-2.74919 v -0.46164 h -2.82498 v 1.15066 h 0.50987 l 0.0861,-0.627 h 1.38838 l -2.02917,2.72851 v 0.47543 h 3.00413 v -1.14722 h -0.50643 l -0.0896,0.63045 z" />
      <path
         id="path242"
         style="font-size:7.05556px;fill:#ffffff;stroke-width:0.264583px"
         d="m 123.83742,117.15706 c 0.61668,0 1.0542,-0.19981 1.31948,-0.45819 l -0.26528,-0.44098 c -0.25149,0.23082 -0.596,0.36863 -1.0542,0.36863 -0.63045,0 -0.99219,-0.51332 -1.00597,-1.2299 l 0.0103,-0.0172 h 2.41846 v -0.42374 c 0,-1.00942 -0.52366,-1.66743 -1.52618,-1.66743 -0.86472,0 -1.59508,0.79237 -1.59508,1.85346 v 0.15159 c 0,1.10243 0.66146,1.86379 1.69843,1.86379 z m -0.10335,-3.33485 c 0.56155,0 0.84749,0.40308 0.84749,0.93707 v 0.0896 h -1.7191 l -0.007,-0.0172 c 0.0724,-0.57877 0.42375,-1.00941 0.8785,-1.00941 z" />
    </g>
    <path
       sodipodi:nodetypes="ccc"
       inkscape:connector-curvature="0"
       id="path2244"
       d="m 75.277607,59.560288 v 14.74154 l 13.630748,0.267269"
       style="fill:none;fill-rule:evenodd;stroke:#bedc84;stroke-width:1;stroke-linecap:butt;stroke-linejoin:miter;stroke-miterlimit:4;stroke-dasharray:none;stroke-opacity:1" />
    <path
       sodipodi:nodetypes="ccc"
       inkscape:connector-curvature="0"
       id="path2244-0"
       d="m 128.76768,59.560288 v 14.741549 l -13.63075,0.26726"
       style="fill:none;fill-rule:evenodd;stroke:#bedc84;stroke-width:1;stroke-linecap:butt;stroke-linejoin:miter;stroke-miterlimit:4;stroke-dasharray:none;stroke-opacity:1" />
    <path
       sodipodi:nodetypes="cc"
       inkscape:connector-curvature="0"
       id="path2244-8"
       d="M 102.2461,59.560228 V 63.63374"
       style="fill:none;fill-rule:evenodd;stroke:#bedc84;stroke-width:1;stroke-linecap:butt;stroke-linejoin:miter;stroke-miterlimit:4;stroke-dasharray:none;stroke-opacity:1" />
  </g>
</svg>
