<?xml version="1.0" encoding="UTF-8"?>
<!-- Created with Inkscape (http://www.inkscape.org/) -->
<svg width="66.107mm" height="31.506mm" version="1.1" viewBox="0 0 234.24 111.64" xmlns="http://www.w3.org/2000/svg" xmlns:cc="http://creativecommons.org/ns#" xmlns:dc="http://purl.org/dc/elements/1.1/" xmlns:rdf="http://www.w3.org/1999/02/22-rdf-syntax-ns#">
 <metadata>
  <rdf:RDF>
   <cc:Work rdf:about="">
    <dc:format>image/svg+xml</dc:format>
    <dc:type rdf:resource="http://purl.org/dc/dcmitype/StillImage"/>
   </cc:Work>
  </rdf:RDF>
 </metadata>
 <g transform="translate(-215.71 97.741)">
  <path transform="matrix(.9375 0 0 .9375 219.78 -94.489)" d="m6.3086-3.4688c-5.882 0-10.65 4.7703-10.65 10.652v97.775c0 5.8816 4.7684 10.65 10.65 10.65h228.55c5.882 0 10.65-4.7703 10.65-10.652v-97.777c0-5.8816-4.7684-10.648-10.65-10.648h-174.21z" fill="#fff" stroke-width="1.1327"/>
  <g transform="translate(-130.65 -599.48)">
   <g transform="translate(20.153 -92.803)" fill="#9e1f63">
    <g transform="matrix(1.0571 0 0 -1.0571 454.84 633.1)">
     <path d="m0 0v-16.342h5.167c1.809 0 3.111 0.408 3.908 1.227 0.797 0.817 1.196 2.067 1.196 3.746v6.524c0 3.23-1.702 4.845-5.104 4.845zm0-21.445v-17.053h-6.072v43.794h11.756c3.445 0 6.082-0.861 7.913-2.583 1.83-1.723 2.745-4.113 2.745-7.17v-6.976c0-4.78-1.831-7.859-5.49-9.237l6.976-17.828h-6.718l-6.266 17.053z" fill="#9e1f63"/>
    </g>
    <g transform="matrix(1.0571 0 0 -1.0571 483.79 655.98)">
     <path d="m0 0h8.72l-4.392 21.251zm12.208-16.859-2.39 11.627h-10.851l-2.39-11.627h-5.943l9.56 43.795h8.526l9.431-43.795z" fill="#9e1f63"/>
    </g>
    <g transform="matrix(1.0571 0 0 -1.0571 521.89 627.5)">
     <path d="m0 0h6.072v-33.847c0-3.187-0.98-5.749-2.939-7.687-1.96-1.938-4.856-2.906-8.688-2.906-3.833 0-6.729 0.968-8.688 2.906-1.96 1.938-2.939 4.5-2.939 7.687v33.847h6.072v-33.589c0-3.575 1.851-5.361 5.555-5.361 3.703 0 5.555 1.786 5.555 5.361z" fill="#9e1f63"/>
    </g>
    <g transform="matrix(1.0571 0 0 -1.0571 532.14 637.41)">
     <path d="m0 0c0 3.057 1.034 5.436 3.101 7.138 2.066 1.7 5.188 2.551 9.366 2.551 2.755 0 5.296-0.323 7.621-0.969v-5.619c-2.541 0.732-5.038 1.098-7.492 1.098-2.455 0-4.145-0.388-5.071-1.163s-1.389-1.938-1.389-3.488v-24.223c0-1.508 0.474-2.648 1.422-3.423 0.946-0.775 2.69-1.163 5.232-1.163 2.54 0 5.038 0.344 7.492 1.034v-5.491c-2.239-0.689-4.866-1.033-7.88-1.033-8.268 0-12.402 3.23-12.402 9.689z" fill="#9e1f63"/>
    </g>
    <path d="m552.73 702.27h-104.22v-3.499h104.22z"/>
    <path d="m552.73 601.95h-104.22v-3.499h104.22z"/>
   </g>
   <g transform="translate(101.96 479.35)">
    <g transform="translate(-165.61 11.51)">
     <path transform="translate(414.17 14.171)" d="m55.084 105.1h40.551c5.1931 0 9.4023-4.2093 9.4023-9.4023v-86.324c0-5.1931-4.2092-9.4043-9.4023-9.4043h-40.551z" fill="#9e1f63"/>
     <path d="m464.03 14.138h-40.551c-5.1931 0-9.4023 4.2112-9.4023 9.4043v86.324c0 5.1927 4.2092 9.4024 9.4023 9.4024h40.551z" fill="#1f639e"/>
     <g transform="matrix(.41209 0 0 .41209 408.61 8.4235)">
      <g fill="#fff">
       <circle cx="35.129" cy="34.964" r="7.41"/>
       <circle cx="246.9" cy="34.964" r="7.41"/>
       <circle cx="246.9" cy="246.73" r="7.409"/>
       <circle cx="35.131" cy="246.73" r="7.409"/>
      </g>
     </g>
    </g>
    <g transform="matrix(1.7019 0 0 1.5429 -825.38 -307.69)" fill="#fff">
     <g transform="translate(.36303 -.36487)" fill="#fff">
      <g transform="rotate(90)">
       <path d="m271.76-669.45q-0.40178 0.82589-1.2946 0.82589h-4.2857v19.286q0 0.3125-0.2009 0.5134-0.20089 0.20089-0.51339 0.20089h-15.714q-0.46875 0-0.64732-0.40179-0.17857-0.44643 0.0893-0.78125l3.5714-4.2857q0.20089-0.24554 0.55803-0.24554h7.1429v-14.286h-4.2857q-0.89286 0-1.2946-0.82589-0.37946-0.8259 0.2009-1.5179l7.1428-8.5714q0.40179-0.49107 1.0938-0.49107 0.69197 0 1.0938 0.49107l7.1429 8.5714q0.60268 0.71428 0.20089 1.5179z"/>
      </g>
      <g transform="rotate(-90)">
       <path d="m-229.2 653.53q-0.40179 0.82589-1.2946 0.82589h-4.2857v19.286q0 0.3125-0.20089 0.51339-0.2009 0.20089-0.5134 0.20089h-15.714q-0.46875 0-0.64732-0.40178-0.17858-0.44643 0.0893-0.78125l3.5714-4.2857q0.20089-0.24553 0.55804-0.24553h7.1428v-14.286h-4.2857q-0.89286 0-1.2946-0.82589-0.37947-0.82589 0.20089-1.5179l7.1429-8.5714q0.40178-0.49107 1.0938-0.49107 0.69196 0 1.0938 0.49107l7.1428 8.5714q0.60268 0.71429 0.2009 1.5179z"/>
      </g>
     </g>
    </g>
   </g>
  </g>
 </g>
</svg>
